<svg width="50" height="31" viewBox="0 0 50 31" xmlns="http://www.w3.org/2000/svg">
    <g transform="matrix(1 0 0 -1 0 30.385)" fill="none" fill-rule="evenodd">
        <rect stroke="#666" x=".5" y=".5" width="49" height="29" rx="3.333"/>
        <path d="M9.793 16.729c-.158-1.053-.95-1.053-1.717-1.053H7.64l.306 1.966c.018.119.119.206.237.206h.2c.522 0 1.015 0 1.27-.301.151-.18.197-.449.14-.818m-.334 2.747H6.57a.404.404 0 0 1-.397-.344l-1.169-7.521a.243.243 0 0 1 .238-.283h1.38c.198 0 .366.146.397.344l.315 2.03c.031.197.2.343.397.343h.915c1.904 0 3.003.935 3.29 2.789.129.81.005 1.447-.369 1.893-.411.49-1.14.75-2.107.75M16.735 14.22c-.138-.82-.783-1.37-1.608-1.37-.413 0-.744.134-.956.387-.21.251-.29.61-.223 1.008.128.813.784 1.38 1.596 1.38.405 0 .733-.135.95-.39.218-.258.304-.618.241-1.015m1.985 2.793h-1.424a.249.249 0 0 1-.245-.211l-.063-.401-.1.145c-.308.451-.995.602-1.682.602-1.573 0-2.918-1.201-3.18-2.886-.135-.84.058-1.644.531-2.205.435-.515 1.055-.729 1.794-.729 1.268 0 1.972.82 1.972.82l-.064-.398a.25.25 0 0 1 .245-.289h1.283c.203 0 .376.15.408.352l.77 4.911a.25.25 0 0 1-.245.289M26.865 17.148h-1.453a.41.41 0 0 1-.346-.199l-2.004-3.186-.849 3.062a.425.425 0 0 1-.402.323h-1.427c-.172 0-.294-.183-.238-.359l1.599-5.069-1.504-2.292c-.118-.18.001-.428.205-.428h1.451c.137 0 .266.073.345.195l4.83 7.527c.115.18-.004.426-.207.426" fill="#757575"/>
        <path d="M31.91 16.729c-.159-1.053-.951-1.053-1.718-1.053h-.436l.306 1.966c.018.119.12.206.238.206h.2c.522 0 1.014 0 1.269-.301.152-.18.198-.449.14-.818m-.333 2.747h-2.89a.404.404 0 0 1-.398-.344l-1.169-7.521a.243.243 0 0 1 .238-.283h1.483c.139 0 .256.102.278.24l.332 2.133c.03.198.199.344.396.344h.915c1.904 0 3.003.935 3.29 2.789.13.81.005 1.447-.369 1.893-.41.49-1.14.75-2.106.75M38.851 14.22c-.137-.82-.783-1.37-1.607-1.37-.413 0-.744.134-.957.387-.21.251-.29.61-.223 1.008.128.813.785 1.38 1.596 1.38.405 0 .733-.135.95-.39.218-.258.304-.618.241-1.015m1.986 2.793h-1.425a.249.249 0 0 1-.245-.211l-.062-.401-.1.145c-.308.451-.996.602-1.683.602-1.573 0-2.917-1.201-3.179-2.886-.136-.84.057-1.644.53-2.205.435-.515 1.055-.729 1.794-.729 1.269 0 1.972.82 1.972.82l-.063-.398a.25.25 0 0 1 .245-.289h1.282c.204 0 .377.15.408.352l.77 4.911a.25.25 0 0 1-.244.289M41.088 11.61c-.027-.148.105-.282.277-.282h1.387c.23 0 .426.146.461.344l1.36 7.522c.027.148-.104.282-.277.282h-1.552c-.138 0-.255-.087-.277-.206l-1.379-7.66z" fill="#CCC"/>
    </g>
</svg>
