<?xml version="1.0" encoding="utf-8"?>
<!-- Generator: Adobe Illustrator 27.5.0, SVG Export Plug-In . SVG Version: 6.00 Build 0)  -->
<svg version="1.1" id="Capa_1" xmlns="http://www.w3.org/2000/svg" xmlns:xlink="http://www.w3.org/1999/xlink" x="0px" y="0px"
	 viewBox="0 0 50 31" style="enable-background:new 0 0 50 31;" xml:space="preserve">
<style type="text/css">
	.st0{fill:#666666;}
	.st1{fill-rule:evenodd;clip-rule:evenodd;fill:#CCCCCC;}
</style>
<g transform="translate(0 .385)">
	<g>
		<path class="st0" d="M46.2,30.2H3.8c-2.1,0-3.8-1.7-3.8-3.8V4c0-2.1,1.7-3.8,3.8-3.8h42.3C48.3,0.2,50,1.9,50,4v22.3
			C50,28.5,48.3,30.2,46.2,30.2z M3.8,1.2C2.3,1.2,1,2.5,1,4v22.3c0,1.6,1.3,2.8,2.8,2.8h42.3c1.6,0,2.8-1.3,2.8-2.8V4
			c0-1.6-1.3-2.8-2.8-2.8H3.8z"/>
	</g>
</g>
<path class="st1" d="M24.8,13.7c-0.4,0-0.6,0.3-0.6,0.6v4.8c0,0.4,0.3,0.6,0.6,0.6c0.4,0,0.6-0.3,0.6-0.6v-4.8
	C25.4,14,25.1,13.7,24.8,13.7z M24.8,11.3c-0.4,0-0.7,0.3-0.7,0.7c0,0.4,0.3,0.7,0.7,0.7c0.4,0,0.7-0.3,0.7-0.7
	C25.5,11.6,25.2,11.3,24.8,11.3z M31.1,14.3c0-0.4-0.3-0.6-0.6-0.6h-3.2c-0.3,0-0.6,0.2-0.6,0.6c0,0.3,0.2,0.6,0.6,0.6h2.1l-2.7,3.8
	c-0.1,0.1-0.1,0.3-0.1,0.4c0,0.4,0.3,0.6,0.6,0.6h3.4c0.3,0,0.6-0.2,0.6-0.6c0-0.3-0.2-0.6-0.6-0.6h-2.3l2.7-3.7
	C31,14.7,31.1,14.5,31.1,14.3z M21.6,17.4c0,0.8-0.3,1.3-1.1,1.3c-0.8,0-1.1-0.5-1.1-1.3v-2.4h1.2c1,0,1.1,0.5,1.1,1.1V17.4z
	 M22.9,16c0-1.3-0.7-2.2-2.3-2.2h-1.2V12c0-0.4-0.3-0.6-0.6-0.6c-0.4,0-0.6,0.3-0.6,0.6v5.4c0,1.3,0.7,2.4,2.4,2.4
	c1.7,0,2.4-1.1,2.4-2.4L22.9,16L22.9,16L22.9,16z M36.2,13.7c-0.4,0-0.6,0.3-0.6,0.6v3c0,0.8-0.3,1.3-1.1,1.3
	c-0.8,0-1.1-0.5-1.1-1.3v-3c0-0.4-0.3-0.6-0.6-0.6c-0.4,0-0.6,0.3-0.6,0.6v3c0,1.3,0.7,2.4,2.4,2.4c1.7,0,2.4-1.1,2.4-2.4v-3
	C36.8,14,36.5,13.7,36.2,13.7z M46,16.1c0-1.3-0.6-2.4-2.3-2.4c-0.8,0-1.3,0.2-1.7,0.6c-0.4-0.4-0.9-0.6-1.7-0.6
	c-1.7,0-2.3,1.1-2.3,2.4v3c0,0.4,0.3,0.6,0.6,0.6c0.4,0,0.6-0.3,0.6-0.6v-3c0-0.8,0.2-1.3,1-1.3c0.8,0,1,0.5,1,1.3v3
	c0,0.4,0.3,0.6,0.6,0.6c0.4,0,0.6-0.3,0.6-0.6v-3c0-0.8,0.2-1.3,1-1.3c0.8,0,1,0.5,1,1.3v3c0,0.4,0.3,0.6,0.6,0.6
	c0.4,0,0.6-0.3,0.6-0.6L46,16.1z M6.3,13.7c0.5,0.3,1.1,0.2,1.4-0.2l1.2-1.6c0.3-0.5,0.2-1.1-0.2-1.4c-0.5-0.3-1.1-0.2-1.4,0.2
	l-1.2,1.6C5.7,12.8,5.8,13.4,6.3,13.7z M11.7,11.4c-0.5-0.3-1.1-0.2-1.4,0.2l-4.8,6.6c-0.3,0.5-0.2,1.1,0.2,1.4
	c0.5,0.3,1.1,0.2,1.4-0.2l4.8-6.6C12.3,12.4,12.2,11.7,11.7,11.4z M5.8,10.9c0.3-0.5,0.2-1.1-0.2-1.4C5.2,9.1,4.5,9.2,4.2,9.7
	c-0.3,0.5-0.2,1.1,0.2,1.4C4.9,11.4,5.5,11.3,5.8,10.9z M13.1,19.9c-0.5-0.3-1.1-0.2-1.4,0.2c-0.3,0.5-0.2,1.1,0.2,1.4
	c0.5,0.3,1.1,0.2,1.4-0.2C13.6,20.9,13.5,20.2,13.1,19.9z M11.2,17.3c-0.5-0.3-1.1-0.2-1.4,0.2l-1.2,1.6c-0.3,0.5-0.2,1.1,0.2,1.4
	c0.5,0.3,1.1,0.2,1.4-0.2l1.2-1.6C11.8,18.3,11.7,17.6,11.2,17.3z"/>
</svg>
