<?xml version="1.0" encoding="utf-8"?>
<!-- Generator: Adobe Illustrator 27.5.0, SVG Export Plug-In . SVG Version: 6.00 Build 0)  -->
<svg version="1.1" id="Capa_1" xmlns="http://www.w3.org/2000/svg" xmlns:xlink="http://www.w3.org/1999/xlink" x="0px" y="0px"
	 viewBox="0 0 50 31" style="enable-background:new 0 0 50 31;" xml:space="preserve">
<style type="text/css">
	.st0{fill:#666666;}
	.st1{fill:#CCCCCC;}
</style>
<g transform="translate(0 .385)">
	<g>
		<path class="st0" d="M46.2,30.2H3.8c-2.1,0-3.8-1.7-3.8-3.8V4c0-2.1,1.7-3.8,3.8-3.8h42.3C48.3,0.2,50,1.9,50,4v22.3
			C50,28.5,48.3,30.2,46.2,30.2z M3.8,1.2C2.3,1.2,1,2.5,1,4v22.3c0,1.6,1.3,2.8,2.8,2.8h42.3c1.6,0,2.8-1.3,2.8-2.8V4
			c0-1.6-1.3-2.8-2.8-2.8H3.8z"/>
	</g>
</g>
<g>
	<path class="st1" d="M25.8,21.1c-2.1,0-4.3-0.8-5.9-2.4c-3.3-3.3-3.3-8.6,0-11.8c1.6-1.6,3.7-2.4,5.9-2.4c2.2,0,4.3,0.9,5.9,2.4
		c0.6,0.6,0.6,1.7,0,2.3c-0.6,0.6-1.6,0.6-2.3,0c-1-1-2.3-1.5-3.6-1.5c-1.4,0-2.7,0.5-3.6,1.5c-2,2-2,5.3,0,7.3c2,2,5.3,2,7.3,0
		c0.6-0.6,1.6-0.6,2.3,0c0.6,0.6,0.6,1.6,0,2.3C30.1,20.3,28,21.1,25.8,21.1"/>
	<path class="st1" d="M31,26.6H20c-0.8,0-1.5-0.7-1.5-1.5c0-0.8,0.7-1.5,1.5-1.5H31c0.8,0,1.5,0.7,1.5,1.5
		C32.5,25.9,31.8,26.6,31,26.6"/>
</g>
</svg>
