<svg width="29" height="30" viewBox="0 0 29 30" xmlns="http://www.w3.org/2000/svg">
    <path d="M14.354 2.179c5.45 0 9.868 4.418 9.868 9.868 0 8.442-8.971 14.82-9.357 15.09l-.511.358-.512-.358c-.385-.27-9.356-6.648-9.356-15.09 0-5.45 4.418-9.868 9.868-9.868zm0 1.794a8.074 8.074 0 0 0-8.074 8.074c0 6.414 6.217 11.78 8.074 13.233 1.857-1.454 8.074-6.819 8.074-13.233a8.074 8.074 0 0 0-8.074-8.074zm0 4.486a3.588 3.588 0 1 1 0 7.177 3.588 3.588 0 0 1 0-7.177zm0 1.794a1.794 1.794 0 1 0 0 3.588 1.794 1.794 0 0 0 0-3.588z" fill="#BBB" fill-rule="evenodd"/>
</svg>
