<?xml version="1.0" encoding="UTF-8"?>
<svg id="Chatbot" xmlns="http://www.w3.org/2000/svg" version="1.1" viewBox="0 0 50 50">
  <!-- Generator: Adobe Illustrator 29.3.1, SVG Export Plug-In . SVG Version: 2.1.0 Build 151)  -->
  <defs>
    <style>
      .st0 {
        fill: #222221;
      }
    </style>
  </defs>
  <g>
    <path class="st0" d="M18.2,21.2c-1,0-1.8.8-1.8,1.8s.8,1.8,1.8,1.8,1.8-.8,1.8-1.8-.8-1.8-1.8-1.8h0Z"/>
    <path class="st0" d="M27.2,21.2c-1,0-1.8.8-1.8,1.8s.8,1.8,1.8,1.8,1.8-.8,1.8-1.8-.8-1.8-1.8-1.8h0Z"/>
    <path class="st0" d="M22.7,30c-2.1,0-4-.7-5-1.7l1.5-1.3c.4.5,1.7,1.1,3.4,1.1s3-.5,3.4-1.1l1.5,1.3c-.9,1.1-2.8,1.7-5,1.7Z"/>
  </g>
  <path class="st0" d="M34.3,21.2v-1.3c0-1.8-1.5-3.3-3.3-3.3h-7.3v-3.2c.5-.3.8-.9.8-1.5,0-1-.8-1.8-1.8-1.8s-1.8.8-1.8,1.8.3,1.2.8,1.5v3.2h-7.2c-1.8,0-3.3,1.5-3.3,3.3v1.3h-2v3.6h2v15.2l6-5.9h13.8c1.8,0,3.3-1.5,3.3-3.3v-6h1.9v-3.6h-1.9ZM32.3,30.8c0,.7-.6,1.3-1.3,1.3h-14.7l-.6.6-2.6,2.5v-15.4c0-.7.6-1.3,1.3-1.3h16.5c.7,0,1.4.7,1.4,1.4v10.9Z"/>
</svg>