<svg width="50" height="31" viewBox="0 0 50 31" xmlns="http://www.w3.org/2000/svg">
    <g transform="translate(0 .385)" fill="none" fill-rule="evenodd">
        <rect stroke="#666" x=".5" y=".5" width="49" height="29" rx="3.333"/>
        <path d="M17.52 26.353c-6.024 0-10.906-4.882-10.906-10.905S11.496 4.542 17.52 4.542c6.023 0 10.905 4.883 10.905 10.906 0 6.023-4.882 10.905-10.905 10.905z" fill="#757575"/>
        <path d="M32.16 4.542a10.867 10.867 0 0 0-7.32 2.823c-.394.357-.762.743-1.101 1.154h2.203c.301.367.578.752.831 1.156h-3.866c-.231.37-.441.755-.628 1.155H27.4c.176.373.33.758.462 1.154h-6.046c-.126.376-.232.761-.317 1.154h6.68a10.985 10.985 0 0 1-.317 5.774h-6.046c.133.396.287.781.461 1.155h5.123c-.187.398-.396.784-.629 1.155h-3.865c.252.402.53.788.832 1.154h2.202c-.338.411-.706.797-1.101 1.155a10.865 10.865 0 0 0 7.32 2.822c6.024 0 10.906-4.882 10.906-10.905S38.184 4.542 32.161 4.542" fill="#CCC"/>
        <path d="M14.973 16.642a2.037 2.037 0 0 0-.264-.019c-.672 0-1.01.23-1.01.685 0 .28.165.458.423.458.483 0 .83-.459.851-1.124zm.861 2.004h-.981l.022-.466c-.299.368-.698.544-1.24.544-.642 0-1.082-.5-1.082-1.229 0-1.095.765-1.734 2.079-1.734.134 0 .306.012.482.035.037-.149.046-.212.046-.292 0-.298-.206-.41-.759-.41a3.948 3.948 0 0 0-1.253.203l.164-1.012c.59-.173.98-.238 1.417-.238 1.017 0 1.555.457 1.554 1.32.002.23-.036.515-.096.89-.102.652-.323 2.05-.353 2.39zM12.058 18.646h-1.185l.68-4.252-1.516 4.252h-.806l-.1-4.228-.713 4.228H7.31l.926-5.531h1.702l.103 3.096 1.039-3.096h1.893l-.915 5.531M33.624 16.642a2.027 2.027 0 0 0-.264-.019c-.671 0-1.01.23-1.01.685 0 .28.164.458.424.458.482 0 .83-.459.85-1.124zm.861 2.004h-.98l.022-.466c-.3.368-.699.544-1.24.544-.643 0-1.082-.5-1.082-1.229 0-1.095.765-1.734 2.078-1.734.134 0 .306.012.482.035.037-.149.047-.212.047-.292 0-.298-.207-.41-.76-.41a3.956 3.956 0 0 0-1.253.203l.165-1.012c.59-.173.979-.238 1.416-.238 1.017 0 1.555.457 1.554 1.32.002.23-.036.515-.095.89-.103.652-.324 2.05-.354 2.39zM21.096 18.578a2.706 2.706 0 0 1-.851.146c-.605 0-.935-.348-.935-.988-.009-.2.087-.722.162-1.2.068-.42.513-3.07.513-3.07h1.177l-.137.682h.71l-.16 1.08h-.713c-.137.856-.332 1.922-.334 2.063 0 .232.124.334.405.334.135 0 .24-.014.32-.043l-.157.996M24.704 18.541a4.003 4.003 0 0 1-1.208.183c-1.317-.002-2.004-.69-2.004-2.007 0-1.538.874-2.67 2.06-2.67.97 0 1.59.634 1.59 1.628 0 .33-.042.652-.145 1.106h-2.344c-.079.653.338.925 1.024.925.42 0 .8-.087 1.223-.283l-.196 1.118zm-.662-2.666c.007-.094.125-.803-.548-.803-.374 0-.642.285-.751.803h1.3zM16.544 15.57c0 .569.276.96.902 1.256.479.225.553.292.553.496 0 .28-.211.408-.68.408-.353 0-.681-.056-1.06-.178l-.163 1.039c.269.058.509.112 1.232.133 1.25 0 1.826-.476 1.826-1.504 0-.618-.241-.98-.834-1.253-.497-.228-.554-.28-.554-.49 0-.242.197-.367.58-.367.232 0 .55.025.85.068l.169-1.043a7.993 7.993 0 0 0-1.042-.088c-1.325 0-1.783.692-1.779 1.523M30.462 14.166c.329 0 .636.085 1.058.299l.194-1.201c-.174-.068-.785-.468-1.302-.468-.792 0-1.462.393-1.933 1.042-.687-.228-.97.232-1.316.69l-.307.072c.023-.15.044-.3.037-.452h-1.088c-.148 1.392-.41 2.802-.617 4.196l-.054.302h1.185c.197-1.284.305-2.107.371-2.664l.446-.247c.067-.248.275-.332.694-.321a5.04 5.04 0 0 0-.085.922c0 1.472.796 2.388 2.07 2.388.328 0 .61-.043 1.046-.162l.208-1.26c-.393.192-.714.283-1.006.283-.688 0-1.104-.508-1.104-1.348 0-1.218.619-2.071 1.503-2.071M40.486 13.115l-.264 1.598c-.323-.426-.67-.735-1.13-.735-.597 0-1.14.453-1.497 1.12-.496-.103-1.008-.278-1.008-.278v.005c.04-.373.056-.6.052-.677h-1.088c-.147 1.392-.41 2.802-.617 4.196l-.054.302h1.185c.16-1.038.282-1.901.372-2.585.405-.366.608-.684 1.016-.663a3.856 3.856 0 0 0-.287 1.46c0 1.124.569 1.866 1.43 1.866.434 0 .766-.15 1.091-.497l-.056.419h1.12l.902-5.531h-1.167zm-1.481 4.492c-.403 0-.607-.299-.607-.887 0-.884.381-1.51.918-1.51.407 0 .628.309.628.88 0 .892-.388 1.517-.939 1.517z" fill="#FFF"/>
        <path fill="#FFF" d="M12.398 18.318h-1.184l.679-4.252-1.514 4.252H9.57l-.1-4.227-.712 4.227H7.65l.925-5.531h1.703l.047 3.424 1.15-3.424h1.838l-.916 5.53M15.314 16.314a1.968 1.968 0 0 0-.265-.018c-.67 0-1.01.23-1.01.684 0 .28.166.459.424.459.483 0 .83-.46.85-1.125zm.86 2.004h-.98l.022-.466c-.299.368-.698.544-1.24.544-.642 0-1.082-.502-1.082-1.23 0-1.095.765-1.733 2.079-1.733.134 0 .306.012.482.035.037-.149.046-.212.046-.293 0-.297-.206-.408-.759-.408a3.933 3.933 0 0 0-1.253.202l.164-1.012c.59-.173.98-.238 1.417-.238 1.017 0 1.555.457 1.554 1.32.002.23-.036.516-.096.89-.103.651-.323 2.05-.353 2.389zM32.054 12.936l-.194 1.2c-.422-.212-.729-.298-1.057-.298-.884 0-1.504.854-1.504 2.072 0 .84.417 1.347 1.105 1.347.292 0 .614-.09 1.005-.284l-.208 1.26c-.435.12-.718.163-1.046.163-1.274 0-2.068-.917-2.068-2.388 0-1.978 1.097-3.36 2.666-3.36.517 0 1.128.22 1.301.288M33.964 16.314a1.954 1.954 0 0 0-.263-.018c-.671 0-1.01.23-1.01.684 0 .28.165.459.423.459.482 0 .83-.46.85-1.125zm.862 2.004h-.98l.021-.466c-.299.368-.698.544-1.24.544-.642 0-1.082-.502-1.082-1.23 0-1.095.765-1.733 2.079-1.733.134 0 .306.012.482.035a1.11 1.11 0 0 0 .046-.293c0-.297-.206-.408-.759-.408a3.935 3.935 0 0 0-1.253.202l.164-1.012c.59-.173.979-.238 1.417-.238 1.017 0 1.555.457 1.554 1.32.002.23-.036.516-.096.89-.102.651-.323 2.05-.353 2.389zM21.436 18.25a2.704 2.704 0 0 1-.85.146c-.605 0-.936-.348-.936-.988-.008-.2.087-.722.163-1.2.068-.42.513-3.07.513-3.07h1.177l-.138.682h.604l-.16 1.08h-.607c-.136.857-.331 1.922-.334 2.063 0 .233.125.333.406.333.135 0 .24-.013.32-.042l-.158.996M25.045 18.214a4.03 4.03 0 0 1-1.208.182c-1.318 0-2.004-.69-2.004-2.007 0-1.538.874-2.67 2.059-2.67.971 0 1.59.634 1.59 1.629 0 .33-.042.651-.144 1.106h-2.344c-.08.652.339.924 1.023.924a2.79 2.79 0 0 0 1.224-.283l-.196 1.119zm-.662-2.668c.007-.094.125-.803-.547-.803-.375 0-.643.287-.752.803h1.3zM16.885 15.242c0 .57.276.96.902 1.256.479.225.553.292.553.497 0 .28-.211.406-.68.406-.353 0-.682-.054-1.06-.177l-.163 1.038c.269.06.509.113 1.232.134 1.249 0 1.826-.475 1.826-1.504 0-.618-.242-.98-.835-1.253-.496-.228-.553-.279-.553-.489 0-.243.197-.368.58-.368.232 0 .55.026.85.068l.169-1.043a8.06 8.06 0 0 0-1.042-.088c-1.325 0-1.783.692-1.78 1.523M41.092 18.318h-1.12l.056-.419c-.325.347-.658.497-1.092.497-.86 0-1.43-.741-1.43-1.867 0-1.496.883-2.757 1.927-2.757.46 0 .807.187 1.13.613l.263-1.598h1.168l-.902 5.53zm-1.746-1.04c.551 0 .938-.624.938-1.515 0-.572-.22-.882-.627-.882-.537 0-.918.627-.918 1.511 0 .589.204.887.607.887zM35.892 13.82c-.148 1.392-.411 2.802-.617 4.195l-.054.303h1.184c.424-2.751.526-3.288 1.19-3.22.106-.564.303-1.057.45-1.305-.496-.104-.773.176-1.136.709.029-.23.081-.454.071-.682h-1.088M26.147 13.82c-.15 1.392-.413 2.802-.618 4.195l-.054.303h1.184c.424-2.751.526-3.288 1.19-3.22.106-.564.303-1.057.45-1.305-.496-.104-.774.176-1.136.709.029-.23.081-.454.071-.682h-1.087"/>
    </g>
</svg>
