<svg width="50" height="31" viewBox="0 0 50 31" xmlns="http://www.w3.org/2000/svg">
    <g transform="translate(0 .385)" fill="none" fill-rule="evenodd">
        <rect stroke="#666" x=".5" y=".5" width="49" height="29" rx="3.333"/>
        <g fill="#CCC">
            <path d="m19.171 20.98 1.885-11.69h3.012l-1.884 11.69H19.17M33.11 9.577a7.447 7.447 0 0 0-2.699-.49c-2.978 0-5.074 1.586-5.092 3.857-.019 1.68 1.496 2.618 2.638 3.176 1.174.573 1.568.94 1.564 1.451-.008.783-.937 1.142-1.803 1.142-1.206 0-1.847-.177-2.838-.613l-.387-.186-.421 2.617c.702.325 2.004.608 3.356.623 3.165 0 5.221-1.568 5.246-3.994.01-1.332-.792-2.342-2.53-3.176-1.053-.542-1.7-.901-1.692-1.45 0-.486.546-1.006 1.726-1.006a5.284 5.284 0 0 1 2.254.45l.27.133.408-2.534M37.122 16.836c.25-.672 1.2-3.268 1.2-3.268-.018.03.248-.677.4-1.115l.203 1.008s.578 2.79.697 3.375h-2.5zm3.716-7.534H38.51c-.722 0-1.263.206-1.579.969l-4.474 10.713h3.164s.517-1.44.634-1.757l3.858.006c.09.408.367 1.751.367 1.751h2.796L40.838 9.302zM16.644 9.3l-2.948 7.97-.316-1.62c-.55-1.867-2.26-3.89-4.173-4.904l2.697 10.224 3.188-.002L19.836 9.3h-3.192"/>
            <path d="M10.959 9.292H6.1l-.04.242c3.78.968 6.28 3.306 7.319 6.116l-1.056-5.372c-.182-.74-.711-.96-1.365-.986"/>
        </g>
    </g>
</svg>
