<?xml version="1.0" encoding="utf-8"?>
<!-- Generator: Adobe Illustrator 27.5.0, SVG Export Plug-In . SVG Version: 6.00 Build 0)  -->
<svg version="1.1" id="Capa_1" xmlns="http://www.w3.org/2000/svg" xmlns:xlink="http://www.w3.org/1999/xlink" x="0px" y="0px"
	 viewBox="0 0 50 31" style="enable-background:new 0 0 50 31;" xml:space="preserve">
<style type="text/css">
	.st0{fill:#666666;}
	.st1{fill:#CCCCCC;}
</style>
<g transform="translate(0 .385)">
	<g>
		<path class="st0" d="M46.2,30.2H3.8c-2.1,0-3.8-1.7-3.8-3.8V4c0-2.1,1.7-3.8,3.8-3.8h42.3C48.3,0.2,50,1.9,50,4v22.3
			C50,28.5,48.3,30.2,46.2,30.2z M3.8,1.2C2.3,1.2,1,2.5,1,4v22.3c0,1.6,1.3,2.8,2.8,2.8h42.3c1.6,0,2.8-1.3,2.8-2.8V4
			c0-1.6-1.3-2.8-2.8-2.8H3.8z"/>
	</g>
</g>
<g>
	<g>
		<path class="st1" d="M28.8,9.6c-0.7-0.7-1.6-1-2.6-1h-3.9v11.5h1.5v-4.7l2.4,0.1c1,0,1.8-0.4,2.6-1c0.7-0.7,1-1.5,1-2.5
			S29.6,10.2,28.8,9.6z M27.9,13.3c-0.4,0.4-0.9,0.6-1.4,0.6H24V10h2.5c0.6-0.1,1,0.2,1.4,0.6l0.1,0.1
			C28.6,11.3,28.6,12.6,27.9,13.3z"/>
		<path class="st1" d="M33.4,12c-1.4,0-2.5,0.5-3.2,1.5l1.3,0.8c0.5-0.7,1.1-1,1.9-1c0.6,0,1,0.2,1.4,0.6c0.4,0.3,0.6,0.8,0.6,1.3
			v0.4c-0.6-0.4-1.2-0.5-2.2-0.5s-1.8,0.2-2.5,0.7c-0.6,0.5-0.9,1.1-0.9,1.9c0,0.8,0.4,1.4,0.9,1.9c0.6,0.5,1.3,0.8,2.2,0.8
			c1,0,1.8-0.5,2.5-1.3h0.1v1.1h1.4v-4.8c0-1-0.3-1.8-1-2.4C35.3,12.3,34.4,12,33.4,12z M34.7,18.3c-0.5,0.5-1,0.7-1.6,0.7
			c-0.4,0-0.8-0.2-1.1-0.4c-0.3-0.2-0.5-0.6-0.5-1c0-0.5,0.2-0.8,0.6-1c0.4-0.3,0.9-0.5,1.5-0.5c0.9,0,1.5,0.2,1.9,0.6
			C35.5,17.3,35.3,17.9,34.7,18.3z"/>
		<polygon class="st1" points="41.2,17.9 41.1,17.9 38.7,12.3 37.2,12.3 40.4,19.6 38.5,23.5 40.1,23.5 45,12.3 43.5,12.3 		"/>
		<polygon class="st1" points="45,12.2 45,12.3 45,12.3 		"/>
		<path class="st1" d="M11.6,13v2.6h3.5c-0.2,0.8-0.6,1.5-1.3,2c-0.6,0.4-1.3,0.7-2.3,0.7c-1.7,0-3.2-1.1-3.7-2.8
			c-0.3-0.8-0.3-1.7,0-2.6h0.1c0.5-1.6,1.9-2.8,3.6-2.8c1,0,1.8,0.4,2.6,1L16,9.2c-1.2-1.1-2.8-1.7-4.4-1.7c-2.5,0-4.8,1.3-5.9,3.6
			l0,0c-1,1.8-1,4.1,0,5.9c1.1,2.3,3.4,3.6,5.9,3.6c1.8,0,3.3-0.6,4.4-1.6c1.2-1.1,1.9-2.9,1.9-4.9c0-0.5-0.1-0.9-0.1-1.3h-6.2V13z"
			/>
	</g>
</g>
</svg>
