<svg width="50" height="31" viewBox="0 0 50 31" xmlns="http://www.w3.org/2000/svg">
    <g transform="translate(0 .385)" fill="none" fill-rule="evenodd">
        <rect stroke="#666" x=".5" y=".5" width="49" height="29" rx="3.333"/>
        <g fill="#CCC" fill-rule="nonzero">
            <path d="M11.923 8.17c.474-.624.796-1.462.71-2.317-.693.036-1.54.481-2.03 1.105-.44.535-.83 1.407-.729 2.227.78.07 1.558-.41 2.049-1.016M12.625 9.345c-1.132-.071-2.093.675-2.634.675-.54 0-1.368-.64-2.263-.622-1.164.018-2.245.71-2.836 1.812-1.216 2.203-.32 5.471.861 7.266.574.888 1.266 1.865 2.178 1.83.861-.036 1.199-.587 2.246-.587 1.046 0 1.35.587 2.262.57.946-.019 1.537-.89 2.11-1.778.66-1.012.93-1.989.946-2.043-.017-.017-1.823-.746-1.84-2.931-.017-1.83 1.418-2.7 1.486-2.754-.81-1.26-2.077-1.402-2.516-1.438"/>
            <g>
                <path d="M23.082 6.874c2.508 0 4.255 1.804 4.255 4.43 0 2.635-1.783 4.448-4.318 4.448h-2.776v4.608h-2.007V6.874h4.846zm-2.84 7.121h2.303c1.746 0 2.74-.98 2.74-2.682 0-1.7-.994-2.672-2.731-2.672h-2.311v5.354zM27.86 17.565c0-1.72 1.264-2.775 3.503-2.906l2.58-.159v-.757c0-1.093-.708-1.747-1.89-1.747-1.12 0-1.819.56-1.989 1.439h-1.827c.108-1.776 1.559-3.084 3.888-3.084 2.284 0 3.744 1.261 3.744 3.233v6.776h-1.855v-1.617h-.044c-.546 1.093-1.738 1.785-2.974 1.785-1.845 0-3.135-1.196-3.135-2.963zm6.083-.887v-.776l-2.32.15c-1.156.084-1.81.616-1.81 1.457 0 .86.681 1.42 1.72 1.42 1.353 0 2.41-.971 2.41-2.251zM37.62 23.976v-1.635c.142.037.465.037.626.037.896 0 1.38-.392 1.675-1.402 0-.018.17-.598.17-.607l-3.403-9.84h2.095l2.383 7.999h.036l2.383-8h2.042l-3.53 10.345c-.805 2.384-1.737 3.15-3.69 3.15-.161 0-.645-.019-.788-.047z"/>
            </g>
        </g>
    </g>
</svg>
