<?xml version="1.0" encoding="utf-8"?>
<!-- Generator: Adobe Illustrator 27.5.0, SVG Export Plug-In . SVG Version: 6.00 Build 0)  -->
<svg version="1.1" id="Capa_1" xmlns="http://www.w3.org/2000/svg" xmlns:xlink="http://www.w3.org/1999/xlink" x="0px" y="0px"
	 viewBox="0 0 50 31" style="enable-background:new 0 0 50 31;" xml:space="preserve">
<style type="text/css">
	.st0{fill:#666666;}
	.st1{fill:#CCCCCC;}
</style>
<g transform="translate(0 .385)">
	<g>
		<path class="st0" d="M46.2,30.2H3.8c-2.1,0-3.8-1.7-3.8-3.8V4c0-2.1,1.7-3.8,3.8-3.8h42.3C48.3,0.2,50,1.9,50,4v22.3
			C50,28.5,48.3,30.2,46.2,30.2z M3.8,1.2C2.3,1.2,1,2.5,1,4v22.3c0,1.6,1.3,2.8,2.8,2.8h42.3c1.6,0,2.8-1.3,2.8-2.8V4
			c0-1.6-1.3-2.8-2.8-2.8H3.8z"/>
	</g>
</g>
<polygon id="_75_fuera" class="st1" points="22.5,5.4 19.6,16 23.8,16 26.5,5.4 29.6,17.5 14.9,17.5 14,20.9 18.3,20.9 17.1,25.6 
	21.4,25.6 22.6,20.9 30.5,20.9 31.7,25.6 36,25.6 30.6,5.4 "/>
</svg>
