<?xml version="1.0" encoding="utf-8"?>
<!-- Generator: Adobe Illustrator 27.5.0, SVG Export Plug-In . SVG Version: 6.00 Build 0)  -->
<svg version="1.1" id="Capa_1" xmlns="http://www.w3.org/2000/svg" xmlns:xlink="http://www.w3.org/1999/xlink" x="0px" y="0px"
	 viewBox="0 0 50 31" style="enable-background:new 0 0 50 31;" xml:space="preserve">
<style type="text/css">
	.st0{fill:#666666;}
	.st1{fill:#CCCCCC;}
</style>
<g transform="translate(0 .385)">
	<g>
		<path class="st0" d="M46.2,30.2H3.8c-2.1,0-3.8-1.7-3.8-3.8V4c0-2.1,1.7-3.8,3.8-3.8h42.3C48.3,0.2,50,1.9,50,4v22.3
			C50,28.5,48.3,30.2,46.2,30.2z M3.8,1.2C2.3,1.2,1,2.5,1,4v22.3c0,1.6,1.3,2.8,2.8,2.8h42.3c1.6,0,2.8-1.3,2.8-2.8V4
			c0-1.6-1.3-2.8-2.8-2.8H3.8z"/>
	</g>
</g>
<g>
	<path class="st1" d="M37.1,11.7C36.1,9,33.9,8,31.2,8c-1.4,0-2.8,0.3-3.9,1.3c-1.1,0.9-1.7,2.2-1.7,3.7c0,3.4,2.7,4.2,5.5,4.8
		c1,0.2,2.7,0.5,2.7,1.7c0,1.3-1.4,1.7-2.4,1.7c-1.6,0-2.8-0.6-3.2-2.2l-3.4,0.8c0.7,3,3.4,4.3,6.3,4.3c1.6,0,3.3-0.3,4.5-1.3
		c1.2-0.9,1.9-2.4,1.9-3.9c0-1.5-0.8-2.8-2-3.7c-1.1-0.7-2.8-1-4.1-1.3c-0.9-0.2-2.3-0.4-2.3-1.6c0-1.2,1.2-1.5,2.2-1.5
		c1.4,0,2.2,0.5,2.7,1.8L37.1,11.7z"/>
	<g>
		<path class="st1" d="M19.5,12.7L19.5,12.7c-0.2-0.1-0.5-0.1-0.7-0.1h-1.1V14h1c0.3,0,0.6,0,0.8-0.1c0.2-0.1,0.3-0.4,0.3-0.6
			C19.8,13,19.7,12.8,19.5,12.7z"/>
		<path class="st1" d="M18.7,5.9c-3.4,0-6.2,2.8-6.2,6.2c0,3.4,2.8,6.2,6.2,6.2c3.4,0,6.2-2.8,6.2-6.2C24.9,8.7,22.1,5.9,18.7,5.9z
			 M20.6,14.9L20.6,14.9c-0.4,0.3-1.1,0.3-1.6,0.3h-2.8V9H19c0.5,0,1,0,1.4,0.3c0.5,0.3,0.8,0.8,0.8,1.4c0,0.7-0.5,1.2-1.1,1.3v0
			c0.8,0.2,1.3,0.7,1.3,1.5C21.4,14.1,21,14.5,20.6,14.9z"/>
		<path class="st1" d="M19.4,11.3L19.4,11.3c0.2-0.1,0.3-0.3,0.3-0.6c0-0.2-0.1-0.4-0.3-0.6c-0.2-0.1-0.6-0.1-0.8-0.1h-0.9v1.4h1
			C18.9,11.5,19.2,11.5,19.4,11.3z"/>
	</g>
</g>
</svg>
