<svg width="44" height="29" viewBox="0 0 44 29" xmlns="http://www.w3.org/2000/svg">
    <g fill="none" fill-rule="evenodd">
        <g stroke="#1A1A1A" stroke-linejoin="round" transform="translate(1.375 1)">
            <rect stroke-width="1.716" stroke-linecap="round" width="34.102" height="21.541" rx="2.955"/>
            <path stroke-width="4.117" d="M0 8.713h32.947"/>
        </g>
        <path d="m33.167 3.316 9.894 4.48v6.696c0 3.05-1.037 6-2.773 8.359-1.737 2.36-4.171 4.122-6.955 4.815-3.115-.693-5.549-2.455-7.286-4.815-1.736-2.358-2.773-5.31-2.773-8.359V7.796l9.893-4.48z" stroke="#FFF" stroke-width="1.372" fill="#1A1A1A"/>
        <g fill="#FFF">
            <path d="M30.098 14.449v3.3c0 1.238 1.215 2.476 2.43 2.476h1.62c1.215 0 2.43-1.238 2.43-2.476v-3.3h-6.48zm2.43 2.063c0-.231.178-.413.405-.413h.81c.227 0 .405.182.405.413v1.65a.405.405 0 0 1-.405.413h-.81a.405.405 0 0 1-.405-.413v-1.65zM30.908 12.798v1.65h.81v-1.32c0-1.097.73-1.98 1.62-1.98.89 0 1.62.883 1.62 1.98v1.32h.81v-1.65c0-1.37-1.086-2.475-2.43-2.475s-2.43 1.106-2.43 2.475z"/>
        </g>
    </g>
</svg>
