<svg width="39" height="38" viewBox="0 0 39 38" xmlns="http://www.w3.org/2000/svg">
    <path d="m9.293 8.918 1.686 1.686a11.875 11.875 0 0 0 8.396 20.271h1.888l-2.731-2.72 1.686-1.686 3.907 3.92c.92.925.92 2.422 0 3.348l-3.907 3.919-1.686-1.687 2.731-2.719h-1.888A14.25 14.25 0 0 1 9.293 8.918zM18.532.344l1.686 1.687-2.731 2.719h1.888a14.25 14.25 0 0 1 10.082 24.332l-1.686-1.686a11.875 11.875 0 0 0-8.396-20.271h-1.888l2.731 2.72-1.686 1.686-3.907-3.92a2.375 2.375 0 0 1 0-3.348L18.532.344z" fill="#1A1A1A" fill-rule="evenodd"/>
</svg>
