<?xml version="1.0" encoding="UTF-8"?><svg id="Capa_1" xmlns="http://www.w3.org/2000/svg" viewBox="0 0 189.09 167.99"><defs><style>.cls-1{fill:#fff;}.cls-2{fill:none;stroke:#000;stroke-miterlimit:10;stroke-width:5.51px;}</style></defs><circle cx="130.21" cy="58.88" r="58.88"/><polygon points="81.09 126.32 127.12 114.93 113.97 92.15 81.09 126.32"/><path class="cls-2" d="M24.16,162.6s17.61,4.34,24.34,1.89c6.74-2.45,4.49-15.72,4.49-15.72l2.28-2.8c1.06-1.3.47-3.26-1.13-3.76l-.55-.17,3.29-1.54c1.45-.68,2.09-2.4,1.43-3.86-.8-1.75-1.65-4.26-1.65-7.06l7.49-1.67c1.9-.42,2.84-2.56,1.88-4.25l-10.66-18.69c-1.35-2.37-1.58-5.22-.62-7.78.4-1.06.88-2.39,1.46-4.04,2.29-6.51-4.02-21.32-12.98-32.69C31.92,46.09,15.64,39.43.07,39.84"/><path class="cls-1" d="M102.89,81.53c-10.43,0-18.92-8.49-18.92-18.92,0-10.43,8.49-18.92,18.92-18.92,10.43,0,18.92,8.49,18.92,18.92,0,10.43-8.49,18.92-18.92,18.92ZM102.89,45.95c-9.18,0-16.65,7.47-16.65,16.66,0,9.18,7.47,16.65,16.65,16.65,9.18,0,16.65-7.47,16.65-16.65,0-9.18-7.47-16.66-16.65-16.66Z"/><path class="cls-1" d="M155.51,81.53c-10.43,0-18.92-8.49-18.92-18.92,0-10.43,8.49-18.92,18.92-18.92,10.43,0,18.92,8.49,18.92,18.92,0,10.43-8.49,18.92-18.92,18.92ZM155.51,45.95c-9.18,0-16.65,7.47-16.65,16.66,0,9.18,7.47,16.65,16.65,16.65,9.18,0,16.65-7.47,16.65-16.65,0-9.18-7.47-16.66-16.65-16.66Z"/><path class="cls-1" d="M155.06,63.61c-.41,0-.81-.23-1.01-.62l-15.31-30.07c-.18-.35-.16-.77.04-1.11.21-.34.57-.54.97-.54h10.19c.37-.02,2.01-.05,3.2,1.04.53.49,1.16,1.38,1.16,2.9,0,1.98-.81,3.3-2.42,3.92-1.24.49-2.82.49-4.48.49-.63,0-1.13-.51-1.13-1.13,0-.63.51-1.13,1.13-1.13,3.69,0,4.63-.21,4.63-2.14,0-.57-.14-.97-.42-1.23-.48-.44-1.33-.46-1.53-.45-.03,0-.06,0-.1,0h-8.37s14.47,28.42,14.47,28.42c.28.56.06,1.24-.5,1.53-.16.08-.34.12-.51.12Z"/><path class="cls-1" d="M120,33.53h-10.85c-.63,0-1.13-.51-1.13-1.13,0-.63.51-1.13,1.13-1.13h10.85c.63,0,1.13.51,1.13,1.13,0,.63-.51,1.13-1.13,1.13Z"/><path class="cls-1" d="M128.97,63.61s-.04,0-.07,0c-.41-.02-.77-.26-.95-.63l-14.9-30.08c-.28-.56-.05-1.24.51-1.52.56-.28,1.24-.05,1.52.51l3.47,7s.08,0,.12,0h24.95c.42,0,.8.23,1,.59.2.37.18.81-.05,1.16l-14.66,22.45c-.21.32-.57.51-.95.51ZM119.67,41.15l9.43,19.04,12.43-19.04h-21.86Z"/><path class="cls-1" d="M101.69,63.74c-.22,0-.45-.07-.64-.2-.52-.36-.64-1.06-.29-1.58l15.92-23.04c.36-.52,1.06-.64,1.58-.29.52.36.64,1.06.29,1.58l-15.92,23.04c-.22.32-.57.49-.93.49Z"/></svg>