<svg width="36" height="38" viewBox="0 0 36 38" xmlns="http://www.w3.org/2000/svg" xmlns:xlink="http://www.w3.org/1999/xlink">
    <defs>
        <path id="8u4wo98qka" d="M0 0h35v18.613H0z"/>
        <path id="yt8p36mx2c" d="M0 0h18.261v30.245H0z"/>
        <path id="oind7ffu4e" d="M0 0h18.261v30.245H0z"/>
    </defs>
    <g fill="none" fill-rule="evenodd">
        <g transform="translate(.375)">
            <mask id="8dqy96x5ob" fill="#fff">
                <use xlink:href="#8u4wo98qka"/>
            </mask>
            <path d="M2.463 8.594 17.5 16.953l15.036-8.36L17.5 1.628 2.463 8.594zM17.5 18.613a.748.748 0 0 1-.364-.095L.396 9.212A.779.779 0 0 1 0 8.502a.775.775 0 0 1 .446-.677L17.186.069a.75.75 0 0 1 .63 0l16.738 7.756a.774.774 0 0 1 .445.677.777.777 0 0 1-.396.71l-16.738 9.306a.752.752 0 0 1-.365.095z" fill="#1A1A1A" mask="url(#8dqy96x5ob)"/>
        </g>
        <path d="M26.244 13.96a.745.745 0 0 1-.352-.09L9.912 5.34a.784.784 0 0 1-.32-1.047.753.753 0 0 1 1.027-.327l15.979 8.53c.372.2.516.668.32 1.048a.758.758 0 0 1-.674.415" fill="#1A1A1A"/>
        <g transform="translate(17.114 7.755)">
            <mask id="a9njmyk1rd" fill="#fff">
                <use xlink:href="#yt8p36mx2c"/>
            </mask>
            <path d="M1.522 10.542v17.621l15.218-8.46V2.082l-15.218 8.46zM.761 30.245a.752.752 0 0 1-.388-.108.78.78 0 0 1-.373-.668V10.082c0-.284.152-.545.397-.68L17.137.094a.748.748 0 0 1 .752.014.78.78 0 0 1 .372.667v19.388a.777.777 0 0 1-.396.68L1.126 30.15a.75.75 0 0 1-.365.095z" fill="#1A1A1A" mask="url(#a9njmyk1rd)"/>
        </g>
        <g transform="translate(.375 7.755)">
            <mask id="98mkc97vuf" fill="#fff">
                <use xlink:href="#oind7ffu4e"/>
            </mask>
            <path d="m1.522 19.703 15.217 8.46V10.542L1.522 2.082v17.62zM17.5 30.245a.747.747 0 0 1-.364-.095L.396 20.844a.778.778 0 0 1-.396-.68V.775C0 .502.14.248.372.109a.748.748 0 0 1 .753-.014L17.865 9.4a.779.779 0 0 1 .396.68V29.47a.78.78 0 0 1-.373.668.75.75 0 0 1-.388.108z" fill="#1A1A1A" mask="url(#98mkc97vuf)"/>
        </g>
        <path d="m7.223 24.337 4.565 2.326v-5.245l-4.565-2.326v5.245zm5.326 4.357a.744.744 0 0 1-.34-.082L6.122 25.51a.778.778 0 0 1-.421-.694v-6.979c0-.269.137-.52.361-.66a.748.748 0 0 1 .74-.034l6.087 3.102c.258.132.421.4.421.694v6.98a.779.779 0 0 1-.361.66.748.748 0 0 1-.4.115z" fill="#1A1A1A"/>
    </g>
</svg>
