<?xml version="1.0" encoding="utf-8"?>
<!-- Generator: Adobe Illustrator 27.5.0, SVG Export Plug-In . SVG Version: 6.00 Build 0)  -->
<svg version="1.1" id="Capa_1" xmlns="http://www.w3.org/2000/svg" xmlns:xlink="http://www.w3.org/1999/xlink" x="0px" y="0px"
	 viewBox="0 0 45 42" style="enable-background:new 0 0 45 42;" xml:space="preserve">
<style type="text/css">
	.st0{fill:#333333;}
</style>
<g>
	<g>
		<path class="st0" d="M19,41c-0.4,0-0.8-0.1-1.3-0.2c0,0,0,0,0,0c0,0-0.1,0-0.1,0c-0.1,0-0.2-0.1-0.2-0.1L2.3,29.7
			c-0.3-0.1-0.5-0.3-0.8-0.6c0,0,0,0,0,0c-0.6-0.6-1-1.5-1-2.4c0-1.8,1.3-3.2,3.1-3.4c0.3-0.1,0.7-0.1,1.1,0c0.2,0,0.3,0.1,0.4,0.1
			c0.2,0,0.3,0.1,0.5,0.2c0.1,0,0.2,0.1,0.3,0.1c0,0,0.1,0,0.1,0L7.5,25l9.1,5.9c0.1,0,0.3,0,0.5,0c0.8-0.2,4.5-1.2,5.8-1.5l0.1,0
			c0.7-0.2,1.5-0.4,2.2-0.6c1-0.3,1.9-0.5,2.2-0.6c0.5-0.3,0.8-0.9,0.8-1.5c0-0.9-0.6-1.6-1.4-1.7h-5.8c-0.7,0-1.3-0.3-1.8-0.8
			c-0.5-0.5-0.7-1.2-0.6-1.9c0.1-1.2,1.2-2.1,2.4-2.1l6.2,0c0.8,0,1.8,0,3.1,0c2.9,0,4.9,1.1,6.6,2.3c0.4,0.3,0.8,0.6,1.2,0.8
			c1.8,1.3,3.3,2.5,5.6,2.5c0.2,0,0.5,0.1,0.6,0.3c0.1,0.2,0.2,0.4,0.1,0.6v6.1l0,0.9c0,0.1,0,0.1,0,0.1v0.6c0,0.4-0.3,0.7-0.7,0.7
			c-0.8,0-2,0.2-3.7,0.6c-0.1,0-0.2,0.1-0.3,0.1c0,0,0,0-0.1,0c-4.3,1.1-13.2,3.3-19.8,5l-0.1,0c0,0,0,0,0,0C19.5,41,19.3,41,19,41z
			 M18.2,39.4c0.4,0.2,0.8,0.2,1.2,0.1l0.1,0c6.6-1.7,15.5-3.9,19.8-5c0.1,0,0.2-0.1,0.3-0.1c0,0,0.1,0,0.1,0
			c1.4-0.3,2.5-0.6,3.4-0.6v0c0,0,0-0.1,0-0.1l0-0.8v-5.6c-2.4-0.2-4.1-1.5-5.8-2.7c-0.4-0.3-0.8-0.6-1.1-0.8c-1.5-1-3.2-2-5.7-2
			c-1.2,0-2.2,0-3,0c0,0,0,0,0,0l-6.2,0c-0.5,0-0.9,0.4-1,0.8c0,0.3,0.1,0.5,0.2,0.7c0.2,0.2,0.4,0.3,0.7,0.3H27c0,0,0.1,0,0.1,0
			c1.6,0.3,2.7,1.6,2.7,3.2c0,1.2-0.6,2.2-1.7,2.8c-0.1,0-0.1,0-0.2,0.1c-0.2,0.1-1.1,0.3-2.3,0.6c-0.7,0.2-1.4,0.4-2.2,0.6l-0.2,0
			c-3.6,1-5.5,1.4-5.9,1.5c0,0-0.1,0-0.1,0c-0.4,0-0.8,0-1.1-0.1c-0.1,0-0.2-0.1-0.2-0.1l-9.3-6c0,0,0,0,0,0L5.1,25c0,0,0,0,0,0
			c0,0-0.1-0.1-0.2-0.1c-0.1-0.1-0.2-0.1-0.3-0.1c-0.1,0-0.1,0-0.2,0c-0.1,0-0.2,0-0.3,0c-0.1,0-0.2,0-0.3,0c0,0-0.1,0-0.1,0
			c-1,0.1-1.8,0.9-1.8,1.9c0,0.5,0.2,1,0.6,1.4c0,0,0,0,0,0c0,0,0,0,0,0c0.1,0.1,0.3,0.3,0.5,0.3c0,0,0.1,0,0.1,0.1l0.6,0.5
			L18.2,39.4C18.2,39.4,18.2,39.4,18.2,39.4z"/>
	</g>
	<path class="st0" d="M18.3,1C13.1,0.9,8.9,5.1,9,10.2c0.1,4.8,4,8.8,8.9,8.9c5.1,0.1,9.3-4.1,9.2-9.2C27,5,23.1,1.1,18.3,1z
		 M20.1,8.6v1.1h-3.6c0,0.1,0,0.2,0,0.3c0,0.1,0,0.2,0,0.3h3.6v1.1h-3.2c0.1,0.2,0.3,0.5,0.5,0.7c0.3,0.3,0.6,0.5,0.9,0.6
		c0.4,0.1,0.7,0.2,1.2,0.2c0.4,0,0.9-0.1,1.2-0.3c0.4-0.2,0.7-0.5,1-0.8l1.3,1.2c-0.4,0.5-1,0.9-1.6,1.2c-0.6,0.3-1.3,0.4-2.1,0.4
		c-0.7,0-1.3-0.1-1.9-0.3c-0.6-0.2-1.1-0.6-1.6-1c-0.4-0.4-0.8-0.9-1-1.5c-0.1-0.1-0.1-0.3-0.2-0.4h-1.5v-1.1h1.3c0-0.1,0-0.2,0-0.3
		s0-0.2,0-0.3h-1.3V8.6h1.5c0-0.1,0.1-0.3,0.2-0.4c0.2-0.6,0.6-1.1,1-1.5c0.4-0.4,1-0.7,1.6-1c0.6-0.2,1.2-0.3,1.9-0.3
		c0.8,0,1.5,0.1,2.1,0.4C22.1,6.1,22.6,6.5,23,7l-1.3,1.2c-0.3-0.4-0.7-0.6-1-0.8c-0.4-0.2-0.8-0.3-1.2-0.3c-0.4,0-0.8,0.1-1.2,0.2
		c-0.4,0.1-0.7,0.3-0.9,0.6c-0.2,0.2-0.3,0.4-0.5,0.7H20.1z"/>
</g>
</svg>
