<svg xmlns="http://www.w3.org/2000/svg" width="48" height="42" viewBox="0 0 48 42">
    <g fill="none" fill-rule="evenodd">
        <g fill="#333">
            <g>
                <g>
                    <g>
                        <path d="M8.014 18.673c-3.37 0-6.112 2.741-6.112 6.11v8.38c0 3.369 2.742 6.11 6.112 6.11s6.112-2.741 6.112-6.11v-8.38c0-3.369-2.742-6.11-6.112-6.11m0 22.392c-4.359 0-7.905-3.545-7.905-7.903v-8.378c0-4.358 3.546-7.903 7.905-7.903s7.905 3.545 7.905 7.903v8.378c0 4.358-3.546 7.903-7.905 7.903" transform="translate(-1344 -5875) translate(254 5808) translate(1057 67) translate(33)"/>
                        <path d="M14.852 26.694H1.187c-.495 0-.896-.402-.896-.897s.401-.896.896-.896h13.665c.495 0 .897.401.897.896s-.402.897-.897.897" transform="translate(-1344 -5875) translate(254 5808) translate(1057 67) translate(33)"/>
                        <path d="M8.02 26.694c-.495 0-.896-.401-.897-.896l-.006-8.02c0-.495.401-.897.896-.897.496 0 .897.4.897.895l.006 8.02c0 .496-.4.897-.896.898zM41.712 8.929c-1.599 0-2.895-1.296-2.895-2.894 0-1.599 1.296-2.895 2.895-2.895s2.895 1.296 2.895 2.895c0 1.598-1.296 2.894-2.895 2.894m5.284-5.924C45.781.855 43.53.117 41.727.117s-4.134.927-5.35 3.043c-1.214 2.116-.982 4.155-.381 5.681.675 1.713 1.458 3.067 2.294 4.462.539.897 1.589 2.61 2.41 3.904.477.753 1.572.761 2.061.017.555-.844 1.232-1.906 1.765-2.846 1.096-1.932 2.211-3.904 2.889-5.736.677-1.832.797-3.486-.419-5.637M14.28 9.093c-.43 0-.809-.309-.883-.746-.083-.488.246-.951.734-1.034.874-.148 1.78-.16 2.658-.033.49.07.83.525.76 1.015-.07.49-.526.83-1.015.76-.694-.1-1.412-.092-2.103.026-.051.008-.102.012-.151.012zm7.433 2.893c-.26 0-.517-.112-.694-.329-.464-.566-.989-1.054-1.562-1.45-.407-.28-.51-.839-.228-1.246.282-.407.84-.51 1.248-.228.71.491 1.36 1.093 1.93 1.79.313.382.256.947-.127 1.26-.166.137-.367.203-.567.203zm-12.343.222c-.174 0-.35-.05-.505-.156-.409-.28-.514-.837-.235-1.246.506-.741 1.128-1.39 1.847-1.93.396-.297.958-.217 1.255.179.297.396.217.957-.179 1.254-.562.422-1.047.93-1.442 1.508-.174.254-.455.39-.741.39zm-1.356 4.646c-.495 0-.897-.401-.897-.896 0-.493.034-.983.102-1.454.07-.49.526-.83 1.015-.76.49.07.83.524.76 1.014-.056.387-.084.791-.084 1.2 0 .495-.4.896-.896.896zm16.057.55c-.423 0-.8-.302-.88-.733-.143-.764-.339-1.49-.583-2.16-.17-.465.07-.98.534-1.149.466-.17.98.07 1.15.534.278.762.5 1.585.662 2.447.09.486-.23.954-.717 1.045-.056.01-.111.016-.166.016zm17.485 5.941c-.041 0-.082-.002-.124-.008-.49-.067-.833-.52-.766-1.01.1-.72.15-1.48.15-2.26 0-.495.4-.896.896-.896.495 0 .897.401.897.896 0 .86-.056 1.703-.166 2.504-.062.449-.446.774-.887.774zm-17.031.006c-.446 0-.833-.332-.889-.786-.098-.793-.148-1.632-.149-2.492 0-.495.4-.897.896-.898.495 0 .896.4.897.895.001.789.047 1.554.136 2.276.06.49-.29.938-.78.999-.038.004-.075.006-.111.006zm14.957 5.535c-.179 0-.36-.053-.516-.164-.405-.286-.5-.845-.215-1.25.409-.578.764-1.223 1.056-1.918.191-.456.717-.67 1.173-.479.457.192.672.717.48 1.173-.342.815-.76 1.575-1.245 2.26-.174.246-.452.378-.733.378zm-13.025.06c-.29 0-.574-.14-.746-.399-.462-.69-.858-1.463-1.18-2.296-.178-.462.052-.98.514-1.158.463-.178.981.052 1.16.513.273.71.609 1.365.997 1.946.275.412.164.969-.248 1.243-.153.102-.326.151-.497.151zm8.274 3.358c-.397 0-.76-.266-.866-.667-.127-.479.158-.97.637-1.096.673-.178 1.324-.463 1.934-.846.42-.263.973-.137 1.236.283.263.419.137.972-.282 1.235-.764.48-1.58.836-2.43 1.06-.076.021-.153.03-.23.03zm-3.547.057c-.068 0-.137-.008-.206-.024-.868-.205-1.696-.55-2.464-1.03-.42-.26-.548-.814-.287-1.234.263-.42.815-.548 1.236-.286.601.375 1.249.646 1.925.805.482.113.781.596.668 1.077-.098.413-.466.692-.872.692z" transform="translate(-1344 -5875) translate(254 5808) translate(1057 67) translate(33)"/>
                    </g>
                </g>
            </g>
        </g>
    </g>
</svg>
