<svg width="41" height="13" viewBox="0 0 41 13" xmlns="http://www.w3.org/2000/svg">
<style type="text/css">
	.st0{fill:#BBBBBB;}
</style>
<g>
	<g>
		<path class="st0" d="M37,12.3l-1.6-1.8l-1.6,1.8h-3.4l3.3-3.8l-3.3-3.8h3.5l1.7,1.8l1.6-1.8h3.4l-3.3,3.7l3.4,3.8L37,12.3z
			 M23.7,12.3V0.5h6.6v2.6h-3.8v1.7h3.8v2.5h-3.8v2.3h3.8v2.6L23.7,12.3z"/>
	</g>
	<path class="st0" d="M21,0.5v4.8h0c-0.6-0.7-1.4-0.9-2.3-0.9c-1.8,0-3.2,1.2-3.7,2.9c-0.5-1.8-2-2.9-4.1-2.9c-1.7,0-3.1,0.8-3.8,2
		V4.8H3.6V3.1h3.8V0.5h-7v11.8h3.1v-5h3.1C6.7,7.7,6.6,8.1,6.6,8.5c0,2.5,1.9,4.2,4.3,4.2c2,0,3.4-1,4.1-2.7h-2.7
		c-0.4,0.5-0.6,0.7-1.4,0.7c-0.8,0-1.6-0.7-1.6-1.6h5.5c0.2,2,1.8,3.6,3.9,3.6c0.9,0,1.7-0.4,2.2-1.2h0v0.8h2.8V0.5L21,0.5L21,0.5
		L21,0.5z M9.4,7.4c0.2-0.8,0.8-1.2,1.5-1.2c0.8,0,1.4,0.5,1.5,1.2H9.4z M19.3,10.5c-1,0-1.7-1-1.7-1.9c0-1.1,0.6-2.1,1.7-2.1
		c1.1,0,1.6,1,1.6,2.1C20.9,9.6,20.4,10.5,19.3,10.5z"/>
</g>
</svg>
