<svg xmlns="http://www.w3.org/2000/svg" viewBox="0 0 247.75 60"><defs><style>.cls-1{fill:none;}</style></defs><g id="Capa_2" data-name="Capa 2"><g id="Capa_1-2" data-name="Capa 1"><rect class="cls-1" width="247.75" height="60"/><rect class="cls-1" width="247.75" height="60"/><path d="M247.75,0H0V60H247.75Zm-3.37,56.8H3.37V3.2h241V56.8Z"/><rect class="cls-1" width="247.75" height="60"/><path d="M27.13,40.28H22.42V31h3.87C30.51,31,33,32.7,33,35.73c0,2.87-2.19,4.55-5.9,4.55M22.42,19.55h4c3.71,0,5.73,1.52,5.73,4.21,0,2.87-2.19,4.55-6.07,4.55h-3.7ZM31,29.66a6.26,6.26,0,0,0,4.55-6.06,6.11,6.11,0,0,0-2-4.72c-1.52-1.35-3.88-2-6.74-2H16.85v2.87h2.53V40.45H16.85v2.86H27c5.56,0,9.1-2.86,9.1-7.24.17-3.37-1.69-5.4-5.06-6.41m17.87,0h-3V19.55h3.37c4.22,0,6.58,1.85,6.58,4.89,0,3.37-2.7,5.22-6.91,5.22m5,1.86c3.2-1.35,5.06-3.88,5.06-7.08,0-4.72-3.71-7.75-9.61-7.75h-9.1v2.86h2.53V40.28H40.28v2.87h8.09V40.28H45.84V32.53h3c1.51,0,2.69.17,3.37,1.51l3.54,7.08c.84,1.69.84,2,3,2h2.36V40.28h-1a2,2,0,0,1-1.86-1.35l-3.2-6.4A2.44,2.44,0,0,0,53.93,31.52ZM121,40.28V19.55h2.53V16.69H118l-9.44,17.52L99.1,16.69H93.54v2.86h2.53V40.28H93.54v2.87h8.09V40.28H99.27V22.58L108,39.44h1L118,22.58v17.7h-2.53v2.87h8.09V40.28Zm16.69-9.44H134V19.55h3.71c3.87,0,6.57,2.19,6.57,5.56-.17,3.54-2.53,5.73-6.57,5.73m-.17-14h-9.27v2.87h2.53V40.45h-2.53v2.86h8.26V40.45h-2.7V33.88h3.54c6.07,0,9.77-3.37,9.77-8.6.17-5.06-3.87-8.43-9.6-8.43m13.31,0v6.07h3V19.55h6.23V40.28h-2.69v2.87h8.42V40.28h-2.69V19.55h6.4v3.37h3V16.85Zm-74,23.6A10.5,10.5,0,0,1,66.57,29.83,10.67,10.67,0,0,1,76.85,19.55a10.45,10.45,0,1,1,0,20.9m0-24.1A13.65,13.65,0,1,0,90.51,30,13.6,13.6,0,0,0,76.85,16.35m153.88.5h-8.26v2.87h2.7V36.57L210.34,17h-5.23v2.87h2.53V40.62h-2.53v2.86h8.09V40.62h-2.53V22.42l15.85,20.89h1.85V19.72h2.36ZM188.6,40.45a10.52,10.52,0,0,1-10.29-10.62A10.67,10.67,0,0,1,188.6,19.55a10.45,10.45,0,0,1,0,20.9m0-24.1a13.74,13.74,0,1,0,13.65,14V30A13.71,13.71,0,0,0,188.6,16.35h0"/></g></g></svg>