<svg width="43" height="13" viewBox="0 0 43 13" xmlns="http://www.w3.org/2000/svg" xmlns:xlink="http://www.w3.org/1999/xlink">
    <defs>
        <path id="3a5mk0mloa" d="M0 0h30.653v12H0z"/>
    </defs>
    <g fill="none" fill-rule="evenodd">
        <g transform="translate(.698 .385)">
            <mask id="sxobdmfxqb" fill="#fff">
                <use xlink:href="#3a5mk0mloa"/>
            </mask>
            <path d="M3.065 7.904c.065 1.357.922 1.793 2.224 1.793.922 0 1.877-.323 1.877-1.18 0-1.018-1.68-1.212-3.377-1.68C2.109 6.368.346 5.625.346 3.507.346.986 2.932 0 5.14 0c2.34 0 4.696 1.115 4.712 3.717H6.787c.05-1.05-.955-1.39-1.895-1.39-.658 0-1.482.227-1.482.986 0 .89 1.697 1.05 3.41 1.52 1.697.468 3.41 1.244 3.41 3.329 0 2.926-2.536 3.862-5.123 3.862-2.702 0-5.09-1.163-5.107-4.12h3.065M10.646.242h9.374v2.409h-6.308v2.02h5.764v2.327h-5.764v2.199h6.473v2.585h-9.539V.242M30.653 7.015c0 3.346-1.564 5.01-5.124 5.01-3.558 0-5.123-1.664-5.123-5.01V.242h3.065v6.95c0 1.487.56 2.247 2.058 2.247 1.5 0 2.06-.76 2.06-2.247V.242h3.064v6.773" fill="#BBB" mask="url(#sxobdmfxqb)"/>
        </g>
        <path d="M34.788 5.637h2.568c.923 0 1.418-.484 1.418-1.358 0-.856-.692-1.244-1.549-1.244h-2.437v2.602zM31.722.627h5.998c2.075 0 4.118.92 4.118 3.249 0 1.244-.609 2.424-1.846 2.893V6.8c1.253.29 1.615 1.665 1.715 2.764.032.485.081 2.181.493 2.602h-3.031c-.264-.388-.313-1.52-.347-1.842-.081-1.164-.278-2.36-1.712-2.36h-2.322v4.202h-3.066V.627z" fill="#BBB"/>
    </g>
</svg>
