<?xml version="1.0" encoding="UTF-8"?><svg id="Layer_2" xmlns="http://www.w3.org/2000/svg" viewBox="0 0 718.38 111.57"><defs><style>.cls-1{fill:#e4002b;}.cls-2{fill:#101a25;}</style></defs><g id="SECONDARY_LOGO"><g id="COLOR"><g id="TAGLINE"><polygon class="cls-2" points="420.64 95.12 420.64 96.97 416.47 96.97 416.47 111.34 414.5 111.34 414.5 96.97 410.32 96.97 410.32 95.12 420.64 95.12"/><polygon class="cls-2" points="440.02 95.12 440.02 111.34 438.04 111.34 438.04 103.46 429.12 103.46 429.12 111.34 427.15 111.34 427.15 95.12 429.12 95.12 429.12 101.6 438.04 101.6 438.04 95.12 440.02 95.12"/><polygon class="cls-2" points="450.29 96.97 450.29 101.6 457.13 101.6 457.13 103.46 450.29 103.46 450.29 109.49 457.6 109.49 457.6 111.34 448.32 111.34 448.32 95.12 457.6 95.12 457.6 96.97 450.29 96.97"/><path class="cls-2" d="m486.8,104.67c-.28-.54-.67-.99-1.17-1.33-.5-.35-1.09-.61-1.75-.78-.1-.03-.2-.05-.31-.07.15-.04.3-.08.44-.14.72-.28,1.28-.69,1.68-1.23s.6-1.18.6-1.94c0-.93-.2-1.69-.6-2.28-.4-.6-.96-1.04-1.68-1.33-.72-.3-1.56-.44-2.54-.44h-4.17v16.22h4.4c1.05,0,1.99-.17,2.82-.52.82-.35,1.48-.87,1.97-1.58.48-.7.73-1.58.73-2.65,0-.74-.14-1.38-.42-1.92Zm-7.54-7.82h2.2c.82,0,1.5.21,2.04.64.54.42.81,1.02.81,1.79,0,.51-.12.95-.37,1.3-.25.36-.59.63-1.02.81-.43.19-.92.28-1.46.28h-2.2v-4.82Zm5.53,11.32c-.31.46-.72.81-1.25,1.06-.54.25-1.15.37-1.85.37h-2.43v-6.21h2.43c.53,0,1.01.07,1.44.2.43.13.81.33,1.12.59.32.26.56.59.73.97.17.39.26.83.26,1.32,0,.67-.15,1.23-.45,1.7Z"/><rect class="cls-2" x="494.75" y="95.12" width="1.97" height="16.22"/><polygon class="cls-2" points="516.14 111.34 513.7 111.34 506.98 103.47 506.98 111.34 505.01 111.34 505.01 95.12 506.98 95.12 506.98 102.1 513.35 95.12 515.79 95.12 508.76 102.71 516.14 111.34"/><polygon class="cls-2" points="524.01 96.97 524.01 101.6 530.86 101.6 530.86 103.46 524.01 103.46 524.01 109.49 531.32 109.49 531.32 111.34 522.05 111.34 522.05 95.12 531.32 95.12 531.32 96.97 524.01 96.97"/><path class="cls-2" d="m560.83,106.94c0,.71-.14,1.35-.41,1.92s-.64,1.06-1.11,1.46c-.47.4-1,.71-1.6.93-.59.21-1.21.32-1.86.32-.88,0-1.7-.19-2.45-.57-.75-.37-1.4-.88-1.97-1.5-.56-.63-1.02-1.29-1.37-2.01l1.57-1.06c.37.65.76,1.22,1.17,1.71.41.5.87.88,1.38,1.16s1.09.42,1.74.42c.86,0,1.56-.24,2.08-.72.53-.48.79-1.09.79-1.83s-.17-1.3-.51-1.74c-.34-.43-.79-.78-1.33-1.05-.55-.27-1.13-.51-1.75-.73-.4-.14-.85-.32-1.34-.55-.5-.22-.97-.51-1.42-.85-.45-.35-.81-.78-1.1-1.29-.29-.51-.43-1.13-.43-1.87,0-.81.2-1.52.61-2.16.4-.63.95-1.13,1.66-1.49.71-.36,1.52-.55,2.44-.55s1.64.17,2.3.5,1.22.76,1.68,1.28c.46.51.82,1.06,1.09,1.63l-1.69.97c-.2-.4-.46-.79-.77-1.18-.31-.39-.68-.7-1.12-.95s-.98-.37-1.61-.37c-.88,0-1.52.21-1.92.64-.41.42-.61.9-.61,1.42,0,.45.12.86.35,1.24s.62.73,1.17,1.07c.55.33,1.29.66,2.24.98.43.15.88.36,1.36.6.48.25.93.56,1.33.94.41.38.75.83,1.01,1.37.26.53.4,1.17.4,1.91Z"/><path class="cls-2" d="m577.51,97.38c-.49-.72-1.14-1.28-1.97-1.67-.83-.4-1.76-.59-2.81-.59h-4.4v16.22h1.96v-6.5h2.44c1.05,0,1.98-.19,2.81-.59.83-.39,1.48-.95,1.97-1.69.49-.73.73-1.59.73-2.58s-.24-1.87-.73-2.6Zm-2.22,4.85c-.66.51-1.51.76-2.56.76h-2.44v-6.02h2.44c1.05,0,1.9.25,2.56.75.65.5.98,1.26.98,2.26s-.33,1.74-.98,2.25Z"/><polygon class="cls-2" points="587.06 96.97 587.06 101.6 593.91 101.6 593.91 103.46 587.06 103.46 587.06 109.49 594.37 109.49 594.37 111.34 585.09 111.34 585.09 95.12 594.37 95.12 594.37 96.97 587.06 96.97"/><path class="cls-2" d="m603.8,99.9c-.56.95-.85,2.06-.85,3.32s.29,2.36.85,3.31c.56.96,1.3,1.71,2.21,2.25.91.54,1.9.81,2.97.81.77,0,1.48-.1,2.12-.3.64-.2,1.22-.48,1.75-.85.52-.36.97-.78,1.34-1.26v2.6c-.68.6-1.42,1.05-2.22,1.34-.81.29-1.8.44-2.99.44s-2.18-.2-3.17-.61c-.98-.41-1.84-.99-2.58-1.74s-1.32-1.63-1.73-2.65c-.42-1.02-.63-2.13-.63-3.34s.21-2.31.63-3.33c.41-1.02.99-1.91,1.73-2.66.74-.74,1.6-1.32,2.58-1.73.99-.41,2.04-.62,3.17-.62,1.19,0,2.18.15,2.99.44.8.3,1.54.74,2.22,1.35v2.59c-.37-.48-.82-.9-1.34-1.26-.53-.36-1.11-.65-1.75-.85-.64-.2-1.35-.3-2.12-.3-1.07,0-2.06.27-2.97.81-.91.54-1.65,1.29-2.21,2.24Z"/><rect class="cls-2" x="622.13" y="95.12" width="1.97" height="16.22"/><path class="cls-2" d="m637.89,94.3l-7.54,17.04h2.21l2.05-4.87h6.54l2.07,4.87h2.2l-7.54-17.04Zm-2.48,10.32l2.48-5.83,2.48,5.83h-4.96Z"/><polygon class="cls-2" points="660.03 109.49 660.03 111.34 651.68 111.34 651.68 95.12 653.66 95.12 653.66 109.49 660.03 109.49"/><rect class="cls-2" x="666.41" y="95.12" width="1.97" height="16.22"/><path class="cls-2" d="m686.28,106.94c0,.71-.13,1.35-.4,1.92-.27.57-.64,1.06-1.12,1.46-.47.4-1,.71-1.59.93-.6.21-1.22.32-1.87.32-.88,0-1.69-.19-2.44-.57-.75-.37-1.41-.88-1.97-1.5-.56-.63-1.02-1.29-1.38-2.01l1.58-1.06c.37.65.76,1.22,1.17,1.71.41.5.87.88,1.38,1.16.5.28,1.08.42,1.73.42.87,0,1.56-.24,2.09-.72.52-.48.78-1.09.78-1.83s-.17-1.3-.51-1.74c-.34-.43-.78-.78-1.33-1.05-.55-.27-1.13-.51-1.75-.73-.4-.14-.85-.32-1.34-.55-.49-.22-.96-.51-1.41-.85-.45-.35-.82-.78-1.1-1.29-.29-.51-.43-1.13-.43-1.87,0-.81.2-1.52.6-2.16.4-.63.96-1.13,1.67-1.49.71-.36,1.52-.55,2.43-.55s1.65.17,2.31.5c.65.33,1.21.76,1.67,1.28.47.51.83,1.06,1.09,1.63l-1.69.97c-.2-.4-.45-.79-.76-1.18-.31-.39-.69-.7-1.13-.95s-.97-.37-1.6-.37c-.88,0-1.53.21-1.93.64-.4.42-.6.9-.6,1.42,0,.45.12.86.35,1.24s.62.73,1.17,1.07c.55.33,1.29.66,2.23.98.43.15.89.36,1.37.6.48.25.92.56,1.33.94.41.38.75.83,1.01,1.37.26.53.39,1.17.39,1.91Z"/><polygon class="cls-2" points="702.32 95.12 702.32 96.97 698.14 96.97 698.14 111.34 696.18 111.34 696.18 96.97 692.01 96.97 692.01 95.12 702.32 95.12"/><path class="cls-2" d="m718.38,106.94c0,.71-.13,1.35-.4,1.92s-.64,1.06-1.11,1.46c-.47.4-1.01.71-1.6.93-.59.21-1.22.32-1.86.32-.88,0-1.7-.19-2.45-.57-.75-.37-1.4-.88-1.97-1.5-.56-.63-1.02-1.29-1.38-2.01l1.58-1.06c.37.65.76,1.22,1.17,1.71.41.5.87.88,1.38,1.16s1.09.42,1.73.42c.87,0,1.56-.24,2.09-.72.52-.48.79-1.09.79-1.83s-.17-1.3-.51-1.74c-.34-.43-.79-.78-1.33-1.05-.55-.27-1.14-.51-1.75-.73-.4-.14-.85-.32-1.35-.55-.49-.22-.96-.51-1.41-.85-.45-.35-.82-.78-1.1-1.29-.29-.51-.43-1.13-.43-1.87,0-.81.2-1.52.6-2.16.4-.63.96-1.13,1.67-1.49s1.52-.55,2.43-.55,1.65.17,2.31.5c.65.33,1.21.76,1.68,1.28.46.51.82,1.06,1.09,1.63l-1.7.97c-.2-.4-.45-.79-.76-1.18-.31-.39-.68-.7-1.12-.95-.44-.25-.98-.37-1.61-.37-.88,0-1.52.21-1.92.64-.41.42-.61.9-.61,1.42,0,.45.12.86.35,1.24.23.38.62.73,1.17,1.07.55.33,1.29.66,2.24.98.43.15.88.36,1.36.6.48.25.92.56,1.33.94.41.38.75.83,1.01,1.37.26.53.39,1.17.39,1.91Z"/></g><g id="LOGOTIPO"><path class="cls-2" d="m207.38,75.28h-18l-3.41-28.14-15.01,21.31c-.4.56-1.23.56-1.62-.01l-14.93-21.3-3.41,28.14h-18l10.2-61.96c.14-.86,1.24-1.13,1.77-.43l24.39,32.32c.39.53,1.18.53,1.58.01l24.47-32.34c.53-.69,1.63-.42,1.77.44l10.2,61.96Z"/><path class="cls-2" d="m259.82,11.72l-32.42,63.57h19.23l5-9.88h18.07l5.16,9.88h19.23l-32.51-63.57c-.37-.72-1.4-.72-1.77,0Zm-5.13,41.19l6.01-13.72,6.08,13.72h-12.09Z"/><path class="cls-2" d="m388.49,75.28h-18l-3.41-28.14-15.01,21.31c-.4.56-1.23.56-1.63-.01l-14.92-21.3-3.41,28.14h-18l10.2-61.96c.14-.86,1.24-1.13,1.77-.43l24.38,32.32c.4.53,1.19.53,1.59.01l24.47-32.34c.53-.69,1.63-.42,1.77.44l10.2,61.96Z"/><path class="cls-2" d="m484.64,75.28h-18.01l-3.41-28.14-15,21.31c-.4.56-1.23.56-1.63-.01l-14.92-21.3-3.41,28.14h-18.01l10.21-61.96c.14-.86,1.24-1.13,1.77-.43l24.38,32.32c.4.53,1.19.53,1.59.01l24.47-32.34c.52-.69,1.63-.42,1.77.44l10.2,61.96Z"/><path class="cls-2" d="m567.81,31.54c-1.66-3.94-4.01-7.32-7.04-10.14-3.03-2.83-6.57-5.02-10.62-6.56-4.05-1.54-8.49-2.32-13.33-2.32s-9.1.78-13.15,2.32c-4.05,1.54-7.59,3.73-10.62,6.56-3.03,2.82-5.41,6.2-7.13,10.14-1.72,3.93-2.58,8.31-2.58,13.15s.82,9.18,2.45,13.2c1.63,4.02,3.95,7.5,6.95,10.44,3,2.95,6.54,5.22,10.62,6.82,4.08,1.6,8.57,2.41,13.46,2.41s9.4-.81,13.51-2.41c4.1-1.6,7.64-3.87,10.62-6.82,2.97-2.94,5.27-6.42,6.9-10.44,1.63-4.02,2.45-8.42,2.45-13.2s-.83-9.22-2.49-13.15Zm-17.35,21.85c-1.28,2.53-3.08,4.51-5.38,5.94-2.3,1.43-5.05,2.14-8.26,2.14s-5.88-.71-8.21-2.14c-2.34-1.43-4.14-3.41-5.42-5.94-1.29-2.54-1.93-5.44-1.93-8.7s.64-6.24,1.93-8.74c1.28-2.51,3.08-4.47,5.42-5.9,2.33-1.43,5.07-2.14,8.21-2.14,3.32,0,6.13.71,8.44,2.14,2.3,1.43,4.06,3.39,5.28,5.9,1.23,2.5,1.84,5.42,1.84,8.74s-.64,6.16-1.92,8.7Z"/><polygon class="cls-2" points="638.48 14.1 638.48 29.22 621.34 29.22 621.34 75.28 604.39 75.28 604.39 29.22 587.25 29.22 587.25 14.1 638.48 14.1"/><polygon class="cls-2" points="718.38 14.1 718.38 75.29 701.42 75.29 701.42 50.9 677.3 50.9 677.3 75.29 660.34 75.29 660.34 14.1 677.3 14.1 677.3 35.78 701.42 35.78 701.42 14.1 718.38 14.1"/></g><g id="ISOTIPO"><path class="cls-1" d="m0,56.9c14.03-8.31,32.38-1.89,39.77,12.31,6.57,12.36,3.87,28.19-7.05,37.09-3.12,2.51-6.75,4.35-10.63,5.28,30.42-18.87,12.87-62.21-22.09-54.67h0Z"/><path class="cls-1" d="m92.32,111.57c-15.86-3.78-24.6-21.13-20.06-36.48,3.85-13.46,16.79-22.98,30.83-21.79,3.99.36,7.88,1.57,11.32,3.6-34.99-7.54-52.49,35.83-22.09,54.67h0Z"/><path class="cls-1" d="m57.2,90.02c-1.12-9.76-.56-20.17-6.11-28.71-5.3-8.9-14.29-12.74-22.13-19.43-7.15-6.03-7.64-13.74-2.89-21.49,3.69-5.91,9.14-10.19,15.06-13.59,8.83-4.91,23.14-9.76,32.61-4.26,5.39,3.1,6.8,9.28,6.51,14.82-.25,7.27-1.99,14.72,5.68,18.63,8.67,4.06,19.58.97,28.41-1.84-3.47,2.17-7.17,4.06-11.1,5.49-5.97,2.13-13,3.36-19.33,1.08-6.19-2.27-9.9-7.38-10.65-13.85-.45-3.12-.32-6.54-.45-9.47-.16-2.6-.25-4.67-1.6-6.46-2.27-2.77-6.65-2.45-10.14-2.03-6.36,1.01-12.52,3.64-17.98,7.06-5.04,3.28-10.95,8.28-11.8,14.2-.24,2.47,1.14,4.04,3.02,6.04,2.71,2.67,6.04,5.11,9.05,7.68,4.83,4.04,9.66,9.1,12.27,15.07,4.84,9.97,2.89,20.67,1.57,31.08h0Z"/><circle class="cls-1" cx="93.19" cy="10.02" r="10.02"/></g></g></g></svg>