<svg width="36" height="13" viewBox="0 0 36 13" xmlns="http://www.w3.org/2000/svg">
    <g fill="#BBB" fill-rule="nonzero">
        <path d="M33.429 12.385c1.107 0 2-.905 2-1.998a1.988 1.988 0 0 0-2-2.002c-1.108 0-2 .904-2 1.997.029 1.098.921 2.003 2 2.003zM5.65 5.97v2.584h2.138c-.31.502-1.02.765-1.495.765-1.615 0-2.423-.912-2.423-2.778 0-2.057 1.069-3.11 3.158-3.11.832 0 1.926.214 3.11.575V.921C9.806.775 9.284.658 8.62.536 8.04.448 7.45.399 6.864.389c-2.09 0-3.754.576-4.987 1.702C.619 3.22 0 4.75 0 6.662c0 1.77.474 3.159 1.451 4.163.972 1.028 2.278 1.555 3.918 1.555 1.64 0 3.159-.863 3.657-1.94v1.75h2.375V5.97H5.65zm6.912 6.22V.59h3.706v8.587h4.039v3.013h-7.745zm8.905-.288V8.744c.63.195 1.273.346 1.926.453.71.122 1.354.19 1.877.19.904 0 1.378-.214 1.378-.624 0-.263-.145-.385-.808-.526l-1.282-.288c-2.205-.502-3.23-1.628-3.23-3.519 0-1.243.425-2.222 1.281-2.968C23.465.745 24.65.385 26.15.385c1.022 0 2.613.214 3.561.453v3.017a23.631 23.631 0 0 0-1.828-.385 10.312 10.312 0 0 0-1.708-.166c-.784 0-1.233.215-1.233.624 0 .239.212.41.643.526l1.495.361c2.186.527 3.207 1.652 3.207 3.563 0 1.219-.45 2.203-1.33 2.92-.88.716-2.124 1.087-3.667 1.087-1.495 0-2.99-.215-3.822-.483z"/>
    </g>
</svg>
