<?xml version="1.0" encoding="UTF-8"?><svg xmlns="http://www.w3.org/2000/svg" viewBox="0 0 503.96 60"><g id="a"/><g id="b"><g id="c"><g><polygon points="417.2 0 374.87 0 353.18 60 395.51 60 417.2 0"/><polygon points="409.5 27.99 434.52 60 483.32 60 455.34 28.34 503.96 0 454.29 0 409.5 27.99"/><path d="M361.4,11.55l4.2-11.55h-108.28l-14.87,41.28c-.87,2.62-1.05,5.6,.87,7.87,.7,.7,5.42,6.3,6.47,7.35,1.75,1.92,3.85,3.5,7.35,3.5h86.76l4.2-11.37h-60.7c-3.67,0-5.42-2.8-4.55-5.6l2.8-7.52h67.17l4.2-11.55h-67.17l4.55-12.42h67Z"/><path d="M237.03,0h-107.76l-21.69,60h41.28l17.49-48.45h30.79c3.32,0,4.55,2.45,3.85,4.72-.7,2.45-1.75,5.42-2.62,7.17-1.05,2.45-3.5,4.37-7.17,4.37h-28.86l25.01,32.01h47.41l-21.34-23.97h12.77c5.95,0,9.45-3.15,11.02-7.17,1.75-4.55,5.77-15.57,7-19.24,2.27-5.77-1.22-9.45-7.17-9.45"/><polygon points="121.75 0 4.2 0 0 11.55 40.58 11.55 23.09 60 62.97 60 80.47 11.55 117.73 11.55 121.75 0"/></g></g></g></svg>