<?xml version="1.0" encoding="utf-8"?>

<svg width="26" height="25" viewBox="0 0 26 25" xmlns="http://www.w3.org/2000/svg">
<style type="text/css">
	.st0{fill:#BBBBBB;}
</style>
<g transform="translate(-15 -14.636)">
	<path class="st0" d="M37.2,17.6c-1.2-0.1-2.5-0.2-3.9-0.2c-4.9,0-10.1,1.1-14.5,5v6.8c0,2.2,0.8,4.1,2.4,5.3c1.4,1.1,5.6,3,6.8,3.6
		c1.2-0.5,5.4-2.4,6.8-3.6c1.6-1.3,2.4-3.1,2.4-5.3V17.6 M19.7,28.5V23h1.8v5.6c0,0.5,0.1,1.2,0.9,1.2c0.3,0,0.6-0.1,0.8-0.2V23H25
		v7.6c-0.8,0.5-1.7,0.7-2.6,0.7C20.6,31.3,19.7,30.4,19.7,28.5 M27.7,34.9h-1.8V23.5c0.7-0.4,1.5-0.7,2.4-0.6c2.1,0,3.2,1.6,3.2,4.1
		s-1.1,4.3-3.1,4.3c-0.3,0-0.5,0-0.8-0.1L27.7,34.9z M27.7,29.8c0.2,0.1,0.4,0.1,0.6,0.1c1,0,1.5-0.9,1.5-2.8c0-2-0.4-2.8-1.4-2.8
		c-0.2,0-0.4,0-0.6,0.1L27.7,29.8z M31.9,25.1c0-1.3,1.1-2.3,2.4-2.3c0.7,0,1.4,0.2,1.9,0.6v1.5c-0.4-0.4-1-0.7-1.6-0.7
		c-0.5,0-1,0.2-1,0.8c0,0.6,0.5,0.9,1.2,1.3c1.5,0.9,1.7,1.6,1.7,2.7c0,1.1-0.8,2.3-2.5,2.3c-0.7,0-1.3-0.2-1.9-0.5v-1.6
		c0.5,0.4,1.1,0.7,1.7,0.7c0.6,0,1.1-0.4,1.1-1c0-0.6-0.3-0.8-1.1-1.3C32.2,26.8,31.9,26.1,31.9,25.1 M20.6,35.3
		c-1.8-1.5-2.7-3.5-2.7-6V17.4c2.8-1.5,6.2-2.2,10.1-2.2s7.3,0.8,10.1,2.2v11.9c0,2.5-0.9,4.6-2.7,6c-1.6,1.3-6.8,3.6-7.4,3.9
		C27.4,38.9,22.3,36.6,20.6,35.3z"/>
</g>
</svg>
