<svg xmlns="http://www.w3.org/2000/svg" viewBox="0 0 311.67 60"><defs><style>.cls-1,.cls-2{fill:#1a171b;}.cls-2{fill-rule:evenodd;}</style></defs><g id="Capa_2" data-name="Capa 2"><g id="Capa_1-2" data-name="Capa 1"><path class="cls-1" d="M23.17,60C15.3,39.63,7.72,20,0,0H46.29c-1.57,4.08-2.91,7.9-4.56,11.58-.31.69-1.87,1.14-2.87,1.16-6.54.1-13.08,0-19.62.06-1.12,0-2.24.1-3.85.18L23.1,33,38.61,18.46l.48.27C33.87,32.25,28.65,45.78,23.17,60Z"/><path class="cls-2" d="M139.22,14.47H101.33A14.13,14.13,0,0,0,88.81,22L77,44.56h37.7a13.44,13.44,0,0,0,11.94-7.29l5.72-11H115.13l-10.9,6.28h9.38l-2.29,4.86H95.85l7.24-13.66a4.32,4.32,0,0,1,3.81-2.29h20.42Z"/><polygon class="cls-2" points="156.4 14.66 142.79 14.66 126.84 44.51 140.46 44.51 156.4 14.66"/><path class="cls-2" d="M209.86,14.71l-16,30h-16l3.76-7.14H165.87L174,32.7H184.2l6-11H171.63l-8.28,15.71a13.68,13.68,0,0,1-12.09,7.28H144.5l12.76-23.56a12.67,12.67,0,0,1,11.23-6.67Z"/><path class="cls-2" d="M257.6,20.76,245,44.7H229.51l11.43-21.37a1.11,1.11,0,0,0-.95-1.62h-14.9L213,44.7H198l16.37-30.23,39.6.1A4.2,4.2,0,0,1,257.6,20.76Z"/><polygon class="cls-2" points="260.02 44.65 271.83 22.28 259.03 22.28 262.79 14.71 311.67 14.71 299.77 21.85 286.87 21.85 274.97 44.6 260.02 44.65"/></g></g></svg>