<?xml version="1.0" encoding="UTF-8"?><svg xmlns="http://www.w3.org/2000/svg" viewBox="0 0 220.74 60"><g id="a"/><g id="b"><g id="c"><g><path d="M91.69,59.99V8.71h-2.07V2.1h.44c6.04,0,12.09,0,18.13,0,.58,0,1.17,.07,1.74,.17,1.3,.23,2.15,1.03,2.65,2.23,.53,1.27,.65,2.61,.65,3.96,.02,4.9,.03,9.8,0,14.71,0,.9-.2,1.82-.42,2.7-.29,1.16-1.11,1.96-2.05,2.63,.37,.33,.73,.63,1.08,.95,.85,.77,1.22,1.78,1.32,2.89,.07,.77,.09,1.55,.09,2.33,0,6.32,.02,12.64-.01,18.97,0,1.07-.14,2.17-.4,3.21-.54,2.14-1.91,3.14-4.13,3.14-4.8,0-9.61,0-14.41,0h-2.6Zm7.21-26.83v.51c0,6.31,0,12.62,0,18.93,0,.08-.03,.19,0,.25,.07,.1,.18,.25,.27,.25,2.02,.01,4.04,.01,6.06,0,.36,0,.61-.18,.67-.55,.03-.19,.07-.38,.07-.58,0-5.96,0-11.92,0-17.88,0-.11,0-.22,0-.33-.05-.48-.19-.6-.67-.6-1.1,0-2.2,0-3.3,0h-3.1Zm0-15.66c0,2.05,0,4.09,0,6.14,0,.79,0,1.59,0,2.38,0,.27,.09,.38,.36,.36,.21-.02,.42,0,.63,0,1.71,0,3.42,0,5.14,0,.69,0,.92-.22,.96-.92,0-.11,0-.22,0-.33,0-2.76,0-5.51,0-8.27,0-2.42,0-4.84,0-7.27,0-.78-.11-.89-.89-.89-1.88,0-3.76,0-5.64,0q-.55,0-.55,.53c0,2.76,0,5.51,0,8.27Z"/><path d="M169.52,2.12h7.99V21.65l.1,.02c.05-.12,.11-.23,.15-.35,2.21-6.24,4.41-12.49,6.62-18.74,.08-.22,.13-.41,.46-.41,2.69,.02,5.38,0,8.06,.01,.07,0,.13,.01,.26,.02-.31,.84-.61,1.65-.91,2.47-2.81,7.62-5.62,15.24-8.42,22.87-.08,.22-.08,.52,0,.74,3.64,10.46,7.29,20.91,10.95,31.36,.04,.1,.06,.21,.11,.35h-.39c-2.55,0-5.1,0-7.65,0-.29,0-.44-.07-.54-.36-2.63-7.42-5.27-14.83-7.91-22.25-.24-.67-.48-1.35-.81-2.01v24.59h-8.06V2.12Z"/><path d="M45.11,30.99c0-7.87,.04-15.74-.02-23.6-.03-3.19,1.95-4.58,4.16-5.05,.78-.16,1.6-.24,2.4-.25,2.97-.02,5.93-.02,8.9,.01,1.33,.02,2.62,.26,3.79,.96,1.44,.86,2.16,2.15,2.17,3.8,.03,4.12,.01,8.24,.01,12.37,0,11.84-.02,23.67,.02,35.51,.01,3.11-1.85,4.58-4.29,5.07-.65,.13-1.32,.17-1.99,.18-3.08,.02-6.16,.02-9.23,0-1.34,0-2.63-.24-3.79-.96-1.53-.95-2.13-2.41-2.13-4.14,0-7.69,0-15.37,0-23.06v-.84Zm7.37-22.77v.48c0,15.03,0,30.05,0,45.08,0,.08,0,.17,0,.25-.03,.24,.06,.34,.31,.38,1.96,.38,3.92,.38,5.88,.02,.36-.06,.42-.22,.42-.55,0-15.08,0-30.16,0-45.25v-.4c-1.12-.45-5.42-.46-6.61-.01Z"/><path d="M21.59,59.56c-.78,0-1.5,.01-2.22-.02-.1,0-.24-.2-.28-.33-.19-.71-.35-1.42-.53-2.14-.03-.12-.07-.23-.12-.4-.5,1.85-1.82,3-3.67,3.23-.47,.06-.94,.08-1.41,.09-2.63,0-5.26,.02-7.9,0-1.43-.02-2.78-.37-3.91-1.31-1.01-.83-1.45-1.94-1.54-3.21-.01-.17,0-.33,0-.5C.01,39.03,.02,23.1,0,7.17,0,4.1,1.96,2.63,4.24,2.25c.68-.11,1.38-.16,2.07-.16,3.27-.01,6.55-.02,9.82,.02,.79,.01,1.61,.17,2.36,.41,1.98,.65,3.09,2.23,3.1,4.36,.02,4.75,0,9.5,0,14.25,0,.56-.25,.82-.82,.82-1.94,0-3.87,0-5.81,0-.62,0-.86-.26-.86-.91,0-4.08,0-8.16,.01-12.24,0-.41-.13-.56-.51-.63-1.87-.3-3.73-.34-5.6,0-.3,.05-.5,.12-.5,.54,.02,15.03,.01,30.05,.01,45.08v.4c.4,.08,.8,.18,1.2,.24,1.68,.27,3.35,.14,5.01-.16,.27-.05,.38-.18,.38-.48-.01-5.65,0-11.31,0-16.96,0-.31-.08-.42-.4-.4-.53,.02-1.06,0-1.59-.02-.49-.02-.75-.29-.75-.76,0-1.78,0-3.57,0-5.35,0-.54,.32-.8,.95-.8,1.53,0,3.06,0,4.6,0,1.24,0,2.48,0,3.72,0,.71,0,.95,.24,.95,.95,0,9.54,0,19.08,0,28.62v.48Z"/><path d="M138.16,59.97V2.12h8.04V59.97h-8.04Z"/><path d="M220.74,7.09c.08,3.76-3.11,7.09-7.07,7.06-3.91-.03-7.06-3.17-7.06-7.09,0-3.85,3.22-7.08,7.08-7.05,4.2,.03,7.15,3.5,7.05,7.09Zm-7.04-6.01c-3.34,0-6.02,2.67-6.02,6,0,3.32,2.7,6.03,6,6.04,3.29,0,6.03-2.73,6.03-6.02,0-3.32-2.7-6.02-6.01-6.02Z"/><path d="M216.87,10.35c-.47,0-.86,.02-1.24-.01-.11,0-.24-.12-.31-.22-.41-.56-.82-1.12-1.2-1.7-.16-.25-.35-.35-.65-.33-.3,.03-.61,0-.97,0v2.23h-1.19V3.81c.68,0,1.34-.01,2.01,0,.55,.01,1.12-.02,1.66,.09,1.03,.21,1.57,.82,1.65,1.72,.09,1.1-.3,1.76-1.32,2.2-.04,.02-.08,.03-.17,.07,.57,.81,1.13,1.6,1.73,2.46Zm-4.33-5.43v2.09c.56,0,1.09,0,1.61,0,.08,0,.17,0,.25,0,.6-.05,1.03-.48,1.05-1.03,.01-.55-.35-1.01-.91-1.05-.66-.05-1.32-.01-1.99-.01Z"/></g></g></g></svg>