<svg xmlns="http://www.w3.org/2000/svg" viewBox="0 0 447.7 60"><g id="Capa_2" data-name="Capa 2"><g id="Capa_1-2" data-name="Capa 1"><path d="M232.55,16.83,224,31.29h7ZM87,4.53H80.07L67.34,34.21c1.94-.33,7.88-1.19,9.28-1.62,1.73-.54,3.13-2.27,5.18-6.58s5.07-12.2,6.69-16.19S88.71,4.53,87,4.53M356.33.32c3.67,0,5.4,3.13,1.84,6.8s-40,43.38-41.23,44.79-1.72,2.8.43,2.8H339.5l-1.95,5.07h-34.2c-4,0-5.51-2.8-1.62-6.9S342.52,9,343.92,7.34s1-2.27-.32-2.27H323.53L325.25.32ZM283,.32s-19.86,47.27-21.37,50.62.43,3.77,2.27,3.77H276.8l-1.94,5.07H251.22c-4.42,0-5.93-2.91-3.56-8.52l22-50.94Zm-36.58,0-5,59.46H228.24l2.59-24.17H220l-16,24.17H191.33S227.7,6.15,229,4.21s4.1-3.89,5.94-3.89ZM211.29.43,186,59.89H172.23L198,.43ZM319,.32,293.74,59.78H279.93L305.61.32ZM190.9.43,189,4.64H171.37c-4.43,0-4.86,1.94-5.83,4S148.17,49.1,147.19,51.15s-.86,3.67,1.95,3.67h17.91l-1.62,5.07H137.05c-5.07,0-6-3.34-4.21-7.66S151.73,8.31,153.13,4.86,158.2.43,162.3.43Zm-41.66,0-2.05,4.1H131.33c-4.42,0-5.93,1.19-7.45,4.53s-8,18.67-8,18.67h17l-2.27,4.32H114.17s-6.36,14.57-8,18.24-1.19,4.64,1.51,4.64h17.91L123.45,60H95.61c-3.88,0-6.47-1.94-4-7.77S109,11.44,111,6.69s5.29-6.15,10-6.15ZM404.14.32l-2.05,4.1H386.22c-4.42,0-5.93,1.19-7.44,4.54s-7.88,18.67-7.88,18.67H388l-2.27,4.31H369.17s-6.36,14.57-8,18.24-1.19,4.64,1.51,4.64h17.91l-2.16,5.07H350.61c-3.88,0-6.47-1.94-4-7.77S364,11.33,366,6.58s5.29-6.15,10-6.15ZM97.88.43C102.73.43,105,4.1,103,9.5s-4.32,10.25-7.66,17.91S89.57,35.94,83.2,36.8L65,39.28,55.9,59.89H42.84L69.17.43ZM62.27.43,60.22,4.64l-19.1-.11c-2.49,0-4,1.62-5.29,3.78s-1.84,4-3,6.8S31.62,20.83,34,22.77s5.29,4.64,7.77,6.8c4.64,4,5.94,5.83,2.16,14.46C41,50.61,42.52,47.7,40,53.2S34.64,60,30.22,60H0l2.59-5.07H21.26c3.34,0,4.32-1.73,5.83-4.64a79.66,79.66,0,0,0,3.77-8.2c1.84-4.32,2.38-6.48-.1-8.85s-5.83-5.18-9.5-8.53-3.56-4.21-1.73-8.85S22.12,9.6,24.06,5.29,29.35.54,32.91.54ZM406.19,54.6h3.34c3.35,0,4.32-1.72,5.51-4.2s15.86-36.16,17.48-40.26S433,5,430.47,5h-8.74L400.47,54.6h5.72Zm-21.15,5L410.5,0h32.38c4.75,0,5.61,4.86,4.21,8.31s-16.95,39.5-18.78,43.81-4.53,7.45-9.07,7.45Z"/></g></g></svg>