<svg width="50.8" height="22" viewBox="0 0 50.8 22" xmlns="http://www.w3.org/2000/svg">
<style type="text/css">
	.st0{fill:#BBBBBB;}
</style>
<g>
	<path class="st0" d="M32.7,16c-0.9,0.2-2.1,0.4-3.2,0.4c-2.7,0-4.5-1.4-4.5-4.1c0-2.5,1.7-4.1,4.1-4.1c0.5,0,1.1,0.1,1.5,0.2V4.9
		h2.1V16L32.7,16z M30.6,10.3c-0.3-0.2-0.8-0.2-1.3-0.2c-1.3,0-2.1,0.8-2.1,2.2c0,1.5,0.9,2.3,2.4,2.3c0.3,0,0.7,0,1-0.1V10.3z
		 M49.9,16c-0.9,0.2-2.1,0.4-3.2,0.4c-2.7,0-4.5-1.4-4.5-4.1c0-2.5,1.7-4.1,4.1-4.1c0.5,0,1.1,0.1,1.5,0.2V4.9h2.1L49.9,16L49.9,16z
		 M47.8,10.3c-0.3-0.2-0.8-0.2-1.3-0.2c-1.3,0-2.1,0.8-2.1,2.2c0,1.5,0.9,2.3,2.4,2.3c0.3,0,0.7,0,1-0.1V10.3z M36,10.3
		c0.3-0.1,0.8-0.2,1.3-0.2c1.3,0,2.2,0.8,2.2,2.1c0,1.6-1,2.3-2.3,2.3v1.8c0,0,0.1,0,0.1,0c2.7,0,4.3-1.5,4.3-4.2
		c0-2.5-1.7-3.9-4.3-3.9c-1.3,0-2.6,0.3-3.4,0.6v10.5H36L36,10.3L36,10.3z"/>
	<path class="st0" d="M13.6,9.8c-0.1,0.1-0.2,0-0.3,0l-0.5-0.3c0,0-0.1-0.1-0.1-0.1c0,0,0,0,0,0c0-0.1-0.1-0.1-0.1-0.2l0-0.6
		c0-0.1,0.1-0.2,0.1-0.3l6-3.5l-8.4-4.6c-0.1-0.1-0.2-0.1-0.3-0.1c-0.1,0-0.2,0-0.3,0.1L1.3,4.9l9.4,5.5c0.1,0,0.2,0.2,0.2,0.3v8
		c0,0.1-0.1,0.2-0.2,0.3l-0.5,0.3c0,0-0.1,0-0.2,0c0,0,0,0,0,0c-0.1,0-0.1,0-0.2,0l-0.5-0.3c-0.1,0-0.2-0.2-0.2-0.3l0-7.1
		c0-0.1,0-0.1-0.1-0.1L0.8,6.5V16c0,0.2,0.1,0.5,0.3,0.6l8.6,5c0.1,0.1,0.2,0.1,0.3,0.1c0.1,0,0.2,0,0.3-0.1l8.6-5
		c0.2-0.1,0.3-0.4,0.3-0.6V6.5L13.6,9.8z"/>
</g>
</svg>
