<svg xmlns="http://www.w3.org/2000/svg" viewBox="0 0 445.25 60"><defs><style>.cls-1{fill-rule:evenodd;}</style></defs><g id="Capa_2" data-name="Capa 2"><g id="Capa_1-2" data-name="Capa 1"><path id="Cannondale-logo" class="cls-1" d="M179.19,17.92a19.89,19.89,0,0,0-11.68-3.53c-3.8,0-7.06.81-9.5,2.71a17.93,17.93,0,0,0-4.34,4.62V15.48H141.72V58.1h12.22V35A14.89,14.89,0,0,1,155,28.51c1.63-3.26,4.35-4.89,8.42-4.89,3.26,0,5.7,1.09,6.79,3.26A12.2,12.2,0,0,1,171.31,32V57.83H183.8V29.05C183.8,23.89,182.17,20.09,179.19,17.92Zm31.49-4.07c-8.15,0-14.12,2.17-17.92,6.78a24.38,24.38,0,0,0-6,16,22.58,22.58,0,0,0,6,16q6.11,6.51,17.92,6.52c8.14,0,14.12-2.18,17.92-6.79a23.87,23.87,0,0,0,6-16,23.07,23.07,0,0,0-6-16C224.8,16.29,218.82,13.85,210.68,13.85ZM219.1,46.7c-1.91,2.44-4.62,3.53-8.15,3.53s-6.24-1.09-8.14-3.53a15.49,15.49,0,0,1-3-9.78c0-4.34,1.09-7.6,3-9.77A10.41,10.41,0,0,1,211,23.62c3.53,0,6.24,1.09,8.15,3.53,1.9,2.17,3,5.7,3,9.77C221.81,41,221,44.25,219.1,46.7ZM22.26,24.16q4.48,0,6.52,2.45A8.92,8.92,0,0,1,30.68,31H43.17c-.82-6-3-10.32-6.52-12.76-3.8-2.44-8.41-3.53-14.39-3.53-6.78,0-12.21,2.17-16.29,6.24C2.17,25,0,30.68,0,38c0,6.51,1.9,11.67,5.43,15.75s9,6,16.56,6,13.3-2.44,17.1-7.33a17.28,17.28,0,0,0,4.08-9.5H30.68a11,11,0,0,1-2.17,5.43c-1.09,1.35-3.26,2.17-6,2.17-4.07,0-6.78-1.63-8.14-5.43a19.5,19.5,0,0,1-1.09-7.6,21,21,0,0,1,1.09-7.88C15.48,26.06,18.19,24.16,22.26,24.16Zm108.6-6.24a19.88,19.88,0,0,0-11.67-3.53c-3.81,0-7.06.81-9.51,2.71a18.27,18.27,0,0,0-4.34,4.62V15.48h-12V58.1h12.22V35a14.74,14.74,0,0,1,1.09-6.51c1.63-3.26,4.34-4.89,8.41-4.89,3.26,0,5.7,1.09,6.79,3.26A12.18,12.18,0,0,1,123,32V57.83h12.49V29.05C135.48,24.16,133.85,20.09,130.86,17.92Zm144.71-.27a19.89,19.89,0,0,0-11.68-3.53c-3.8,0-7.06.81-9.5,2.71a17.93,17.93,0,0,0-4.34,4.62V15.2h-12V57.83h12.22V34.75a14.87,14.87,0,0,1,1.08-6.51c1.63-3.26,4.35-4.89,8.42-4.89,3.26,0,5.7,1.08,6.79,3.26a12.19,12.19,0,0,1,1.08,5.15v25.8h12.49V28.78C280.18,23.89,278.82,20.09,275.57,17.65Zm94.75-.82a31.16,31.16,0,0,0-13.58-2.71c-7.87,0-13.57,1.9-16.56,5.7a16.54,16.54,0,0,0-3.53,9.23h11.68a7,7,0,0,1,1.62-3.8c1.09-1.36,3.26-1.9,6.25-1.9,2.71,0,4.61.27,6,1.08,1.36.55,1.9,1.9,1.9,3.53,0,1.36-.81,2.45-2.71,3.26a34.77,34.77,0,0,1-4.89,1.09l-4.07.54c-4.62.54-8.42,1.36-10.86,2.72A12.4,12.4,0,0,0,334.75,47c0,4.07,1.36,7.06,4.07,9.23s6.25,3.26,10.59,3.26a19.92,19.92,0,0,0,9-2.17,30.65,30.65,0,0,0,6-4.35h0v4.89H376V27.42Q376.43,19.68,370.32,16.83Zm-11.41,32A13.61,13.61,0,0,1,351.58,51a8.15,8.15,0,0,1-4.34-1.36,4.88,4.88,0,0,1-1.9-4.07,4.75,4.75,0,0,1,3-4.61,24.52,24.52,0,0,1,5.7-1.63l2.71-.55A28,28,0,0,0,360,38a15.05,15.05,0,0,0,3.26-1.09V41A9.24,9.24,0,0,1,358.91,48.87ZM444.71,31a19.4,19.4,0,0,0-3.81-8.69A18.36,18.36,0,0,0,432.76,16a27.63,27.63,0,0,0-10.86-1.9c-6.79,0-12.49,1.9-16.56,6-4.34,4.07-6.52,9.5-6.52,17.1,0,7.88,2.45,13.58,7.06,17.11a27.29,27.29,0,0,0,16.56,5.16c7.61,0,13.31-2.17,17.65-6.25a15.51,15.51,0,0,0,4.62-7.6H432.22a14.52,14.52,0,0,1-2.45,3c-1.63,1.35-4.07,1.9-6.78,1.9a13.28,13.28,0,0,1-6.79-1.63q-4.49-2.44-4.89-9h33.94A62,62,0,0,0,444.71,31ZM411.58,32a12.43,12.43,0,0,1,3.26-6.52q2.45-2.44,7.33-2.44a12.94,12.94,0,0,1,7.33,2.17A9.55,9.55,0,0,1,432.76,32ZM382,0V57.56h12.22V0Zm-63.8.27V19.55A14.76,14.76,0,0,0,313.57,16a21.06,21.06,0,0,0-8.41-1.63c-6.25,0-11.13,2.17-14.66,6.24s-5.43,9.78-5.43,17.11q0,9.36,5.7,15.47a18.1,18.1,0,0,0,13.85,6c3.25,0,7.05-.55,9.23-1.63A19.08,19.08,0,0,0,319,53.21v4.62H331V.27Zm-3.8,45.88c-1.9,2.45-4.34,3.53-7.87,3.53s-6-1.08-7.61-3.53-2.44-5.43-2.44-9.5a16.69,16.69,0,0,1,2.44-9.23c1.63-2.44,4.35-3.8,7.88-3.8a10,10,0,0,1,6.24,1.9c3,2.17,4.35,6,4.35,11.13C317.1,40.72,316.29,43.71,314.39,46.15ZM81.72,17.38a31.13,31.13,0,0,0-13.58-2.72c-7.87,0-13.57,1.9-16.56,5.7a16.65,16.65,0,0,0-3.53,9.23H59.73a7,7,0,0,1,1.63-3.8c1.08-1.36,3.26-1.9,6.24-1.9,2.72,0,4.62.27,6,1.09,1.36.54,1.91,1.9,1.91,3.53,0,1.35-.82,2.44-2.72,3.25a33.08,33.08,0,0,1-4.89,1.09l-4.07.54c-4.61.55-8.42,1.36-10.86,2.72a12.42,12.42,0,0,0-6.79,11.4c0,4.07,1.36,7.06,4.08,9.23S56.47,60,60.81,60a19.79,19.79,0,0,0,9-2.17,30.42,30.42,0,0,0,6-4.35h0v4.89H87.42V28C87.69,22.53,85.79,19.28,81.72,17.38Zm-11.4,32A13.66,13.66,0,0,1,63,51.58a8.26,8.26,0,0,1-4.35-1.35,4.94,4.94,0,0,1-1.9-4.08,4.75,4.75,0,0,1,3-4.61,25,25,0,0,1,5.7-1.63l2.71-.54a27.7,27.7,0,0,0,3.26-.82,15.2,15.2,0,0,0,3.26-1.08v4.07A9,9,0,0,1,70.32,49.41ZM442.21,9.73a2.9,2.9,0,1,1-2.92,2.91A2.89,2.89,0,0,1,442.21,9.73Zm-2.37,2.9a2.36,2.36,0,0,0,4.71,0,2.36,2.36,0,1,0-4.71,0Zm3.06.28.7,1.27h-.68l-.69-1.28h-.6v1.27H441V11.12l.24,0c.53,0,1.05,0,1.58,0a.89.89,0,0,1,.81,1.31,1.11,1.11,0,0,1-.37.38A1.42,1.42,0,0,1,442.9,12.91Zm-1.25-.51c.37,0,.72,0,1.08,0a.38.38,0,0,0,.39-.42.36.36,0,0,0-.35-.41c-.36,0-.73,0-1.12,0Z"/></g></g></svg>