<svg xmlns="http://www.w3.org/2000/svg" viewBox="0 0 290.51 60"><g id="Capa_2" data-name="Capa 2"><g id="Capa_1-2" data-name="Capa 1"><path d="M166.41,43.52H149.77c-4.68,0-6.67-3.38-4.36-7.41s4.86-8.28,7.19-12.48a11,11,0,0,1,10.66-6.15c10.55.15,21.1,0,31.65.05a10.62,10.62,0,0,1,2.19.16c3.05.67,4.59,3.44,3.11,6.16q-4.34,7.92-9.11,15.6c-1.78,2.87-4.71,4-8,4.06C177.5,43.54,172,43.52,166.41,43.52Zm2.29-5c1.52,0,3,0,4.56,0a3.26,3.26,0,0,0,3.15-1.75c2.11-3.69,4.27-7.36,6.36-11.07,1.14-2,.57-3.08-1.75-3.14-3.19-.08-6.38,0-9.56,0a3,3,0,0,0-2.79,1.59c-2.16,3.78-4.37,7.54-6.5,11.33-1.06,1.88-.37,3,1.82,3C165.56,38.55,167.13,38.51,168.7,38.52Z"/><path d="M49.31,43.33c.84-1.48,1.57-2.93,2.48-4.25a2.28,2.28,0,0,1,1.64-.54c9.23,0,18.45,0,27.68,0,1.53,0,3.5-2.52,3-4a1.9,1.9,0,0,0-1.12-1,6.53,6.53,0,0,0-2-.23c-5.69,0-11.38,0-17.08,0A8.35,8.35,0,0,1,61.3,33c-2.6-.89-3.78-3.3-2.58-5.76a40,40,0,0,1,3.9-6.37,8.51,8.51,0,0,1,7.09-3.28c13.05,0,26.11,0,39.16,0,.23,0,.47,0,.92.09-.89,1.57-1.63,3-2.56,4.38-.26.38-1.1.51-1.68.51-8.73,0-17.47,0-26.2,0-1.66,0-3.75,2.23-3.44,3.84a2.07,2.07,0,0,0,1.23,1.23,6.25,6.25,0,0,0,2.17.21c5.6,0,11.19,0,16.79,0a9.21,9.21,0,0,1,2.46.29c2.81.84,4.08,3.42,2.77,6-1.52,3-3.3,5.9-5,8.81a1.45,1.45,0,0,1-1.06.54q-22.82,0-45.64,0A1.88,1.88,0,0,1,49.31,43.33Z"/><path d="M11.58,48.32c4,0,8,.17,12.06,0a4.23,4.23,0,0,0,2.82-1.75c1.73-2.6,3.19-5.39,4.74-8.11a3.9,3.9,0,0,0-.1-4.18c-1.26-2.16-2.49-4.33-3.77-6.48a6.17,6.17,0,0,1,0-6.68l5.57-9.53c2.78,4.78,5.51,9.3,8.06,13.92a33.78,33.78,0,0,1,3,6.79,11.77,11.77,0,0,1-1.36,9.22C39.7,46.69,36.73,51.82,33.77,57a5.82,5.82,0,0,1-5.24,3c-7.7.06-15.41,0-23.12,0a2.19,2.19,0,0,1-.47-.18Q8.3,54,11.63,48.27Z"/><path d="M11.63,48.27a11.19,11.19,0,0,1-1-1.22c-2.82-4.82-5.61-9.66-8.44-14.47a14,14,0,0,1-.06-15q4.08-7,8.05-14A6.45,6.45,0,0,1,16.35,0C24,.05,31.56,0,39.42,0c-.3.56-.51,1-.74,1.37-1.71,3-3.47,5.92-5.13,8.91a2,2,0,0,1-2,1.22c-3.29-.07-6.58,0-9.87,0a4.27,4.27,0,0,0-4.17,2.42c-1.32,2.46-2.74,4.87-4.16,7.27a4.18,4.18,0,0,0,0,4.69C14.58,28,15.77,30.1,17,32.21a6.13,6.13,0,0,1,0,6.55l-5.45,9.56Z"/><path d="M139.53,38.52c-1,1.65-1.72,3.07-2.59,4.42a1.64,1.64,0,0,1-1.21.55c-9.28,0-18.55.08-27.83,0-4.11,0-6.05-3.5-4-7.07,2.48-4.39,5.08-8.72,7.57-13.11,2.3-4.05,5.67-5.91,10.39-5.84,9.33.14,18.65,0,28,0h1.78c-.93,1.65-1.65,3.09-2.54,4.42a2.07,2.07,0,0,1-1.5.56c-5.4,0-10.8.11-16.19,0a4.56,4.56,0,0,0-4.69,2.73c-1.73,3.3-3.69,6.47-5.53,9.7-1.47,2.59-.89,3.59,2,3.59Z"/><path d="M205.29,43.46l12-20.84H203c1.05-1.8,1.89-3.31,2.81-4.76.15-.23.69-.32,1-.32q20.23,0,40.47,0a4.55,4.55,0,0,1,.72.13c-.92,1.57-1.73,3.09-2.68,4.52-.19.28-.87.32-1.33.32-2.8,0-5.6.1-8.39,0a2.71,2.71,0,0,0-2.84,1.68c-3.42,6.1-7,12.13-10.44,18.22a1.91,1.91,0,0,1-1.95,1.14c-4.56,0-9.12,0-13.68,0C206.31,43.52,205.93,43.49,205.29,43.46Z"/><path d="M247.81,43.52c4.08-7.08,8-13.89,12.06-21h-11c1-1.73,1.81-3.2,2.71-4.61a1.32,1.32,0,0,1,1-.41H290a2.53,2.53,0,0,1,.55.19c-.85,1.48-1.63,2.94-2.54,4.3a1.92,1.92,0,0,1-1.39.48c-3,0-6,.06-9,0a1.94,1.94,0,0,0-2,1.13C272.1,29.85,268.49,36,265,42.24a2.24,2.24,0,0,1-2.3,1.31C257.84,43.48,253,43.52,247.81,43.52Z"/></g></g></svg>