<svg xmlns="http://www.w3.org/2000/svg" viewBox="0 0 554.98 60"><defs><style>.cls-1{fill:#1a1a1a;}</style></defs><g id="Capa_2" data-name="Capa 2"><g id="Capa_1-2" data-name="Capa 1"><path class="cls-1" d="M73.11,0C48,0,12,3.75,1.86,30S25.11,60,50.23,60s61.13-3.75,71.25-30S97.86,0,73.11,0ZM95.23,30c-6.37,16.88-27,19.13-40.87,19.13-14.25,0-33-2.25-26.63-19.13s27-19.12,40.88-19.12C82.86,10.88,101.61,13.12,95.23,30ZM349.11,15.37c4.87-11.62-10.88-13.5-22.5-13.5h-72L231.73,58.13h73.88c12.75,0,31.12-1.88,36.37-14.63,4.13-9.75-5.25-13.5-15.37-14.62V28.5c9.37-1.12,19.12-4.5,22.5-13.12ZM317.61,40.5c-2.25,5.62-9.38,6.37-14.63,6.37H261l5.25-12.75h41.63c5.25,0,12,1.13,9.75,6.38ZM323.23,18c-1.87,4.87-8.25,5.25-12.37,5.25H270.73l4.5-10.88H315c4.5.38,10.13,1.13,8.25,5.63Zm-84,1.87c6-15.75-13.87-18-28.5-18h-69l-22.5,56.25H144l8.25-20.62h19.88l25.12,20.62h30L200.61,37.5C217.48,36.75,234,33,239.23,19.87Zm-42.37,6.75H156.73l5.63-14.25h40.12c5.63,0,13.13.75,10.5,7.13C210.73,25.87,202.48,26.62,196.86,26.62ZM527.23,1.87H498l-65.25,45h-34.5c-11.25,0-24.75-1.5-24-12h59.25L438,24H378.73c7.88-9.75,21.75-11.25,32.63-11.25h48l4.5-10.88h-46.5c-23.63,0-57.75,3.38-67.13,28.13s22.13,28.13,45.38,28.13H444L460.86,46.5h60.75l5.62,11.63H555ZM476.61,35.63,506.23,15l10.13,20.63Z"/></g></g></svg>