<svg width="56" height="13" viewBox="0 0 56 13" xmlns="http://www.w3.org/2000/svg">
    <g fill="#BBB" fill-rule="nonzero">
        <path d="M1.819.813h2.984l4.355 7.075h.03L10.302.813h2.985l-1.819 11.572H8.482L4.13 5.295H4.1l-1.115 7.09H0zM16.275 10.374l-1.107 2.01H12L18.235.815h3.259L24 12.383h-3.183l-.43-2.01h-4.112zm3.027-5.985h-.03L17.46 8.072h2.482l-.64-3.683zM34.14 4.51c-.484-.816-1.414-1.254-2.447-1.254-1.848 0-3.32 1.39-3.606 3.159-.29 1.798.763 3.098 2.642 3.098.986 0 2.048-.468 2.8-1.209l-.574 3.552c-1.05.302-1.811.529-2.75.529-1.619 0-3.062-.605-4.09-1.678-1.096-1.133-1.442-2.615-1.169-4.307.252-1.557 1.094-3.053 2.384-4.172C28.655 1.08 30.416.385 32.05.385c.97 0 1.83.211 2.664.574l-.573 3.552zM39.007 3.36l-.296 1.934h3.281l-.39 2.548H38.32l-.306 1.995h3.46l-.391 2.548h-6.37L36.487.813h6.37l-.39 2.548h-3.46zM44.602.813h3.616l1.262 2.993L51.67.813h3.616L50.836 6.2l3.228 6.185h-3.541l-1.786-3.776-3.18 3.776H42L47.384 6.2z"/>
    </g>
</svg>
