<svg xmlns="http://www.w3.org/2000/svg" viewBox="0 0 437.87 60"><defs><style>.cls-1,.cls-2{fill:#1a171b;}.cls-2{fill-rule:evenodd;}</style></defs><g id="Capa_2" data-name="Capa 2"><g id="Capa_1-2" data-name="Capa 1"><path class="cls-1" d="M282.36,16.53C281.73,15.19,280,15,275.21,15h-43L216.35,45h44.7c6.65,0,9.78-4.16,11.71-8,0,0,9-17,9.08-17.33a8.87,8.87,0,0,0,.67-2A1.76,1.76,0,0,0,282.36,16.53Zm-24.45,20.1a5,5,0,0,1-2.08.4H234.65L242,23.24H261.2c2.61,0,3.13.13,3.33.68.07.2.06.51-.24,1.2,0,0-3.76,7.08-5.47,10.32A3.16,3.16,0,0,1,257.91,36.63Z"/><path class="cls-1" d="M140.34,23.26,144.69,15H99c-8,0-9.21,2.21-10.27,4.11C84.78,26.47,77.25,40.7,77.24,40.72a4.2,4.2,0,0,0-.43,1.85,1.85,1.85,0,0,0,.32.93c.5.67,1.81,1.54,5.53,1.53H128.8l4.24-8-39.52,0L95,34.27H126.1l4.4-8.36-31,0,1.4-2.64Z"/><polygon class="cls-1" points="226.78 15.04 210.42 15.04 194.49 45.06 210.9 45.06 226.78 15.04"/><path class="cls-1" d="M341.23,16.47c-.64-.91-2-1.45-5.75-1.44H295.15c-6.22,0-7.2,1.89-8.36,4L273,45.06h15.31L294,34.26h24.71L313,45.07h14.61l13.73-26a2.63,2.63,0,0,0,.25-1.43A2.32,2.32,0,0,0,341.23,16.47Zm-41.88,7.82a2.11,2.11,0,0,1,2.08-1h21.3c1.32,0,1.41.7,1.24,1.08-.09.19-1.74,3.32-1.74,3.32h-24.7Z"/><path class="cls-1" d="M202.59,16.43c-.48-.58-1.69-1.38-5.39-1.37l-48.13,0-15.88,30,14.7,0,11.53-21.78h25.49s1.09,0,.71.8c-.24.52-.51,1-.65,1.25s-.24.62-1.21.62h-17.7l-4.54,8.56,14,10.58h19L180.76,34.3l7,0c5.53-.13,7.15-1,8.81-3.86,0,0,6.21-11.88,6.22-11.92a2.09,2.09,0,0,0,.26-1A1.55,1.55,0,0,0,202.59,16.43Z"/><path class="cls-1" d="M55.92,15,41.82,29.31,37.72,15H19.58c-3.15,0-4.22,1.25-5.34,3.25L0,45.07H15.08L26.63,23.26h3.16l4.8,15.62H44.84L62,23.24h4.09L54.51,45H69.63L83.45,18.91c1.39-3.21.91-3.89-3.21-3.89Z"/><path class="cls-2" d="M422.14,60c2.52,0,2.9-1.26.84-2.8L403,41a5.6,5.6,0,0,0-6.86.14l-5.24,3.33c-2.59,1.72-5.77,2-7.64.87s-5.21-1-7.41.24l-20.7,12.1C353,59,353.22,60,355.73,60Z"/><path class="cls-2" d="M436.59,48.2c3.8,3.81-1.81,4.64-4.71,2.48L402.13,27.74c-2.1-1.48-5-1.12-7.28.47l-5.59,3.72c-2.18,1.51-5.35,2-7.55.69l-.31-.18a8.45,8.45,0,0,0-7.95.1L344.71,51.29c-2.34,1.5-6.25.17-3.32-3.09l44.2-47c1.56-1.56,5.3-1.59,6.89,0Z"/></g></g></svg>