<svg width="26" height="25" viewBox="0 0 26 25" xmlns="http://www.w3.org/2000/svg">
    <path d="M17.217 10.506H7.826V8.92h9.391v1.586zm-3.13 7.533c0-.876-.701-1.587-1.565-1.587-.865 0-1.565.71-1.565 1.587 0 .876.7 1.586 1.565 1.586.864 0 1.565-.71 1.565-1.586zm-1.565 4.76c5.52 0 10.097-4.137 10.847-9.52h-1.585c-.742 4.504-4.608 7.932-9.262 7.932-1.73 0-3.129-1.42-3.129-3.172 0-1.752 1.4-3.17 3.129-3.17s3.13 1.376 3.13 3.17c0 .35-.07.68-.173.996a7.83 7.83 0 0 0 1.738-1.006c0-2.618-2.103-4.748-4.695-4.748-2.593 0-4.696 2.13-4.696 4.758s2.103 4.76 4.696 4.76zm-10.833-9.52a11.1 11.1 0 0 0 5.537 8.134 6.363 6.363 0 0 1-.965-3.374v-4.76H1.689zm18.659-1.585h4.695c0 7.009-5.606 12.69-12.521 12.69C5.607 24.385 0 18.704 0 11.695h7.826v2.159a6.202 6.202 0 0 1 4.696-2.16c2.986 0 5.48 2.121 6.105 4.957a7.954 7.954 0 0 0 1.72-4.956zm-3.913-8.726c1.728 0 3.13 1.42 3.13 3.172v1.588H18V6.14c0-.875-.701-1.586-1.565-1.586-.14 0-.274.025-.403.06.248.455.403.97.403 1.526v1.588H14.87V6.14c0-.875-.702-1.586-1.566-1.586v3.174H11.74V4.554c-.865 0-1.565.71-1.565 1.586v1.588H8.609V6.14c0-.556.153-1.071.402-1.525a1.516 1.516 0 0 0-.402-.06c-.865 0-1.566.71-1.566 1.585v1.588H5.478V6.14c0-1.752 1.402-3.172 3.13-3.172.576 0 1.112.16 1.574.435a3.07 3.07 0 0 1 1.557-.435c.266 0 .52.045.766.108a3.11 3.11 0 0 1 .8-.108c.572 0 1.101.167 1.564.44.462-.273.993-.44 1.566-.44zm-3.572-1.835h.738v.692h-.738v.747h-.682v-.747h-.738v-.692h.738V.385h.682v.748z" fill="#BBB" fill-rule="nonzero"/>
</svg>
