<?xml version="1.0" encoding="utf-8"?>
<!-- Generator: Adobe Illustrator 27.5.0, SVG Export Plug-In . SVG Version: 6.00 Build 0)  -->
<svg version="1.1" id="Layer_2" xmlns="http://www.w3.org/2000/svg" xmlns:xlink="http://www.w3.org/1999/xlink" x="0px" y="0px"
	 viewBox="0 0 718.4 111.6" style="enable-background:new 0 0 718.4 111.6;" xml:space="preserve">
<style type="text/css">
	.st0{fill:#101A25;}
	.st1{fill:#E4002B;}
</style>
<g id="SECONDARY_LOGO">
	<g id="COLOR">
		<g id="LOGOTIPO">
			<path class="st0" d="M207.4,75.3h-18L186,47.1l-15,21.3c-0.4,0.6-1.2,0.6-1.6,0l-14.9-21.3L151,75.3h-18l10.2-62
				c0.1-0.9,1.2-1.1,1.8-0.4l24.4,32.3c0.4,0.5,1.2,0.5,1.6,0l24.5-32.3c0.5-0.7,1.6-0.4,1.8,0.4L207.4,75.3z"/>
			<path class="st0" d="M259.8,11.7l-32.4,63.6h19.2l5-9.9h18.1l5.2,9.9h19.2l-32.5-63.6C261.2,11,260.2,11,259.8,11.7L259.8,11.7z
				 M254.7,52.9l6-13.7l6.1,13.7H254.7z"/>
			<path class="st0" d="M388.5,75.3h-18l-3.4-28.1l-15,21.3c-0.4,0.6-1.2,0.6-1.6,0l-14.9-21.3l-3.4,28.1h-18l10.2-62
				c0.1-0.9,1.2-1.1,1.8-0.4l24.4,32.3c0.4,0.5,1.2,0.5,1.6,0l24.5-32.3c0.5-0.7,1.6-0.4,1.8,0.4L388.5,75.3L388.5,75.3z"/>
			<path class="st0" d="M484.6,75.3h-18l-3.4-28.1l-15,21.3c-0.4,0.6-1.2,0.6-1.6,0l-14.9-21.3l-3.4,28.1h-18l10.2-62
				c0.1-0.9,1.2-1.1,1.8-0.4l24.4,32.3c0.4,0.5,1.2,0.5,1.6,0l24.5-32.3c0.5-0.7,1.6-0.4,1.8,0.4L484.6,75.3L484.6,75.3z"/>
			<path class="st0" d="M567.8,31.5c-1.7-3.9-4-7.3-7-10.1c-3-2.8-6.6-5-10.6-6.6c-4-1.5-8.5-2.3-13.3-2.3s-9.1,0.8-13.2,2.3
				c-4,1.5-7.6,3.7-10.6,6.6c-3,2.8-5.4,6.2-7.1,10.1c-1.7,3.9-2.6,8.3-2.6,13.2s0.8,9.2,2.5,13.2s4,7.5,6.9,10.4
				c3,2.9,6.5,5.2,10.6,6.8s8.6,2.4,13.5,2.4s9.4-0.8,13.5-2.4c4.1-1.6,7.6-3.9,10.6-6.8c3-2.9,5.3-6.4,6.9-10.4s2.5-8.4,2.5-13.2
				S569.5,35.5,567.8,31.5L567.8,31.5z M550.5,53.4c-1.3,2.5-3.1,4.5-5.4,5.9c-2.3,1.4-5,2.1-8.3,2.1s-5.9-0.7-8.2-2.1
				c-2.3-1.4-4.1-3.4-5.4-5.9c-1.3-2.5-1.9-5.4-1.9-8.7s0.6-6.2,1.9-8.7c1.3-2.5,3.1-4.5,5.4-5.9c2.3-1.4,5.1-2.1,8.2-2.1
				c3.3,0,6.1,0.7,8.4,2.1c2.3,1.4,4.1,3.4,5.3,5.9c1.2,2.5,1.8,5.4,1.8,8.7S551.7,50.8,550.5,53.4L550.5,53.4z"/>
			<polygon class="st0" points="638.5,14.1 638.5,29.2 621.3,29.2 621.3,75.3 604.4,75.3 604.4,29.2 587.2,29.2 587.2,14.1 			"/>
			<polygon class="st0" points="718.4,14.1 718.4,75.3 701.4,75.3 701.4,50.9 677.3,50.9 677.3,75.3 660.3,75.3 660.3,14.1 
				677.3,14.1 677.3,35.8 701.4,35.8 701.4,14.1 			"/>
		</g>
		<g id="ISOTIPO">
			<path class="st1" d="M0,56.9c14-8.3,32.4-1.9,39.8,12.3c6.6,12.4,3.9,28.2-7,37.1c-3.1,2.5-6.8,4.3-10.6,5.3
				C52.5,92.7,35,49.4,0,56.9L0,56.9L0,56.9z"/>
			<path class="st1" d="M92.3,111.6c-15.9-3.8-24.6-21.1-20.1-36.5c3.8-13.5,16.8-23,30.8-21.8c4,0.4,7.9,1.6,11.3,3.6
				C79.4,49.4,61.9,92.7,92.3,111.6C92.3,111.6,92.3,111.6,92.3,111.6z"/>
			<path class="st1" d="M57.2,90c-1.1-9.8-0.6-20.2-6.1-28.7C45.8,52.4,36.8,48.6,29,41.9c-7.1-6-7.6-13.7-2.9-21.5
				c3.7-5.9,9.1-10.2,15.1-13.6C50,1.9,64.3-3,73.7,2.5c5.4,3.1,6.8,9.3,6.5,14.8c-0.2,7.3-2,14.7,5.7,18.6c8.7,4.1,19.6,1,28.4-1.8
				c-3.5,2.2-7.2,4.1-11.1,5.5c-6,2.1-13,3.4-19.3,1.1c-6.2-2.3-9.9-7.4-10.7-13.9c-0.4-3.1-0.3-6.5-0.4-9.5
				c-0.2-2.6-0.2-4.7-1.6-6.5c-2.3-2.8-6.7-2.4-10.1-2c-6.4,1-12.5,3.6-18,7.1c-5,3.3-11,8.3-11.8,14.2c-0.2,2.5,1.1,4,3,6
				c2.7,2.7,6,5.1,9,7.7c4.8,4,9.7,9.1,12.3,15.1C60.5,68.9,58.5,79.6,57.2,90L57.2,90L57.2,90z"/>
			<circle class="st1" cx="93.2" cy="10" r="10"/>
		</g>
	</g>
</g>
</svg>
