<?xml version="1.0" encoding="UTF-8"?>
<svg id="Capa_2" data-name="Capa 2" xmlns="http://www.w3.org/2000/svg" viewBox="0 0 290.57 60.04">
  <g id="Capa_1-2" data-name="Capa 1">
    <g id="Capa_2-2" data-name="Capa 2">
      <g id="uuid-2b09c348-4f85-4dc3-95f4-66f7171311a2" data-name="Capa 1-2">
        <path d="M166.43,43.53h-16.64c-4.68,0-6.67-3.38-4.36-7.41s4.86-8.28,7.19-12.48c1.97-4.03,6.19-6.47,10.66-6.15,10.55.15,21.1,0,31.65.05.73-.02,1.47.03,2.19.16,3.05.67,4.59,3.44,3.11,6.16-2.89,5.28-5.93,10.48-9.11,15.6-1.78,2.87-4.71,4-8,4.06-5.6.03-11.1,0-16.69,0ZM168.72,38.53h4.56c1.31.1,2.55-.59,3.15-1.75,2.11-3.69,4.27-7.36,6.36-11.07,1.14-2,.57-3.08-1.75-3.14-3.19-.08-6.38,0-9.56,0-1.16-.05-2.25.56-2.79,1.59-2.16,3.78-4.37,7.54-6.5,11.33-1.06,1.88-.37,3,1.82,3,1.57.07,3.14.03,4.71.04Z" fill="#fff"/>
        <path d="M49.33,43.34c.84-1.48,1.57-2.93,2.48-4.25.45-.39,1.04-.58,1.64-.54h27.68c1.53,0,3.5-2.52,3-4-.22-.47-.63-.83-1.12-1-.65-.18-1.33-.26-2-.23h-17.08c-.88.04-1.76-.07-2.61-.31-2.6-.89-3.78-3.3-2.58-5.76,1.1-2.24,2.4-4.37,3.9-6.37,1.69-2.18,4.33-3.4,7.09-3.28h39.16c.23,0,.47,0,.92.09-.89,1.57-1.63,3-2.56,4.38-.26.38-1.1.51-1.68.51h-26.2c-1.66,0-3.75,2.23-3.44,3.84.21.57.66,1.02,1.23,1.23.71.2,1.44.27,2.17.21h16.79c.83-.01,1.66.08,2.46.29,2.81.84,4.08,3.42,2.77,6-1.52,3-3.3,5.9-5,8.81-.26.32-.65.52-1.06.54h-45.64c-.11-.04-.22-.1-.32-.16Z" fill="#fff"/>
        <path d="M11.6,48.33c4,0,8,.17,12.06,0,1.14-.17,2.16-.81,2.82-1.75,1.73-2.6,3.19-5.39,4.74-8.11.78-1.29.74-2.92-.1-4.18-1.26-2.16-2.49-4.33-3.77-6.48-1.31-2.03-1.31-4.65,0-6.68l5.57-9.53c2.78,4.78,5.51,9.3,8.06,13.92,1.25,2.15,2.25,4.42,3,6.79.83,3.13.34,6.46-1.36,9.22-2.9,5.17-5.87,10.3-8.83,15.48-1.05,1.9-3.07,3.06-5.24,3-7.7.06-15.41,0-23.12,0-.16-.04-.32-.1-.47-.18,2.24-3.88,4.47-7.73,6.69-11.55l-.05.05Z" fill="#fff"/>
        <path d="M11.65,48.28c-.36-.38-.7-.79-1-1.22-2.82-4.82-5.61-9.66-8.44-14.47-2.92-4.57-2.95-10.41-.06-15,2.72-4.67,5.4-9.33,8.05-14C11.35,1.27,13.78-.14,16.37.01,24.02.06,31.58.01,39.44.01c-.3.56-.51,1-.74,1.37-1.71,3-3.47,5.92-5.13,8.91-.33.8-1.14,1.29-2,1.22-3.29-.07-6.58,0-9.87,0-1.76-.13-3.41.83-4.17,2.42-1.32,2.46-2.74,4.87-4.16,7.27-.96,1.42-.96,3.27,0,4.69,1.23,2.12,2.42,4.22,3.65,6.33,1.26,2,1.26,4.55,0,6.55l-5.45,9.56.08-.05Z" fill="#fff"/>
        <path d="M139.55,38.53c-1,1.65-1.72,3.07-2.59,4.42-.31.35-.75.55-1.21.55-9.28,0-18.55.08-27.83,0-4.11,0-6.05-3.5-4-7.07,2.48-4.39,5.08-8.72,7.57-13.11,2.3-4.05,5.67-5.91,10.39-5.84,9.33.14,18.65,0,28,0h1.78c-.93,1.65-1.65,3.09-2.54,4.42-.4.38-.95.58-1.5.56-5.4,0-10.8.11-16.19,0-1.99-.22-3.9.89-4.69,2.73-1.73,3.3-3.69,6.47-5.53,9.7-1.47,2.59-.89,3.59,2,3.59l16.34.05Z" fill="#fff"/>
        <path d="M205.31,43.47l12-20.84h-14.29c1.05-1.8,1.89-3.31,2.81-4.76.15-.23.69-.32,1-.32h40.47c.24.02.48.07.72.13-.92,1.57-1.73,3.09-2.68,4.52-.19.28-.87.32-1.33.32-2.8,0-5.6.1-8.39,0-1.22-.15-2.38.54-2.84,1.68-3.42,6.1-7,12.13-10.44,18.22-.33.76-1.12,1.23-1.95,1.14h-13.68c-.38-.03-.76-.06-1.4-.09Z" fill="#fff"/>
        <path d="M247.83,43.53c4.08-7.08,8-13.89,12.06-21h-11c1-1.73,1.81-3.2,2.71-4.61.26-.27.62-.42,1-.41h37.42c.19.04.37.11.55.19-.85,1.48-1.63,2.94-2.54,4.3-.38.34-.88.51-1.39.48-3,0-6,.06-9,0-.84-.1-1.65.36-2,1.13-3.52,6.25-7.13,12.4-10.62,18.64-.4.89-1.33,1.42-2.3,1.31-4.86-.07-9.7-.03-14.89-.03Z" fill="#fff"/>
      </g>
    </g>
  </g>
</svg>